<svg width="950" height="88" viewBox="0 0 950 88" fill="none" xmlns="http://www.w3.org/2000/svg">
<path d="M206.085 15.6352C206.172 15.6352 206.249 15.6478 206.336 15.6478V11.2674H202.566C197.855 11.2674 193.931 7.39347 193.035 2.24083C192.925 1.60909 192.63 1.04078 192.2 0.632343C191.77 0.223904 191.231 0.000486929 190.674 0H15.9984C14.8508 0 13.8671 0.936844 13.6376 2.24083C13.1923 4.78829 12 7.07893 10.2629 8.72418C8.52584 10.3694 6.35089 11.268 4.10703 11.2674H0.336334V15.6478C0.423771 15.6352 0.500277 15.6352 0.587714 15.6352C1.39065 15.6352 2.1607 16.0046 2.72847 16.6623C3.29623 17.3199 3.6152 18.2119 3.6152 19.142C3.6152 20.0721 3.29623 20.964 2.72847 21.6217C2.1607 22.2794 1.39065 22.6488 0.587714 22.6488C0.500277 22.6488 0.423771 22.6362 0.336334 22.6362V25.586C0.423771 25.5733 0.500277 25.5733 0.587714 25.5733C1.39065 25.5733 2.1607 25.9428 2.72847 26.6004C3.29623 27.2581 3.6152 28.1501 3.6152 29.0801C3.6152 30.0102 3.29623 30.9022 2.72847 31.5598C2.1607 32.2175 1.39065 32.587 0.587714 32.587C0.500277 32.587 0.423771 32.5743 0.336334 32.5743V35.5241C0.423771 35.5114 0.500277 35.5114 0.587714 35.5114C2.25993 35.5241 3.6152 37.0939 3.6152 39.0309C3.6152 39.4915 3.53689 39.9475 3.38474 40.3729C3.2326 40.7984 3.0096 41.185 2.72847 41.5106C2.44734 41.8363 2.11359 42.0946 1.74628 42.2708C1.37897 42.4471 0.985288 42.5378 0.587714 42.5378C0.500277 42.5378 0.423771 42.5251 0.336334 42.5251V45.4749C0.423771 45.4622 0.500277 45.4622 0.587714 45.4622C2.25993 45.4622 3.6152 47.0447 3.6152 48.9817C3.6152 50.9187 2.25993 52.4886 0.587714 52.4886C0.500277 52.4886 0.423771 52.4759 0.336334 52.4759V55.4257C0.423771 55.413 0.500277 55.413 0.587714 55.413C1.39065 55.413 2.1607 55.7825 2.72847 56.4402C3.29623 57.0978 3.6152 57.9898 3.6152 58.9199C3.6152 59.8499 3.29623 60.7419 2.72847 61.3996C2.1607 62.0572 1.39065 62.4267 0.587714 62.4267C0.500277 62.4267 0.423771 62.414 0.336334 62.414V65.3638C0.423771 65.3512 0.500277 65.3512 0.587714 65.3512C1.39065 65.3512 2.1607 65.7206 2.72847 66.3783C3.29623 67.036 3.6152 67.9279 3.6152 68.858C3.6152 69.7881 3.29623 70.6801 2.72847 71.3377C2.1607 71.9954 1.39065 72.3648 0.587714 72.3648C0.500277 72.3648 0.423771 72.3522 0.336334 72.3522V76.7326H4.10703C8.81766 76.7326 12.7414 80.6065 13.6376 85.7592C13.7473 86.3909 14.0424 86.9592 14.4727 87.3677C14.903 87.7761 15.442 87.9995 15.9984 88H190.674C191.822 88 192.806 87.0632 193.035 85.7592C193.48 83.2117 194.673 80.9211 196.41 79.2758C198.147 77.6306 200.322 76.732 202.566 76.7326H206.336V72.3648C206.249 72.3775 206.172 72.3775 206.085 72.3775C205.282 72.3775 204.512 72.008 203.944 71.3504C203.376 70.6927 203.057 69.8007 203.057 68.8707C203.057 67.9406 203.376 67.0486 203.944 66.391C204.512 65.7333 205.282 65.3638 206.085 65.3638C206.172 65.3638 206.249 65.3765 206.336 65.3765V62.4267C206.249 62.4394 206.172 62.4394 206.085 62.4394C205.282 62.4394 204.512 62.0699 203.944 61.4122C203.376 60.7546 203.057 59.8626 203.057 58.9325C203.057 58.0025 203.376 57.1105 203.944 56.4528C204.512 55.7952 205.282 55.4257 206.085 55.4257C206.172 55.4257 206.249 55.4384 206.336 55.4384V52.4886C206.249 52.5012 206.172 52.5012 206.085 52.5012C205.282 52.5012 204.512 52.1318 203.944 51.4741C203.376 50.8164 203.057 49.9245 203.057 48.9944C203.057 48.0643 203.376 47.1723 203.944 46.5147C204.512 45.857 205.282 45.4876 206.085 45.4876C206.172 45.4876 206.249 45.5002 206.336 45.5002V42.5504C206.249 42.5631 206.172 42.5631 206.085 42.5631C205.282 42.5631 204.512 42.1936 203.944 41.536C203.376 40.8783 203.057 39.9863 203.057 39.0563C203.057 38.1262 203.376 37.2342 203.944 36.5765C204.512 35.9189 205.282 35.5494 206.085 35.5494C206.172 35.5494 206.249 35.5621 206.336 35.5621V32.6123C206.249 32.6249 206.172 32.6249 206.085 32.6249C205.282 32.6249 204.512 32.2555 203.944 31.5978C203.376 30.9402 203.057 30.0482 203.057 29.1181C203.057 28.188 203.376 27.2961 203.944 26.6384C204.512 25.9807 205.282 25.6113 206.085 25.6113C206.172 25.6113 206.249 25.6239 206.336 25.6239V22.6741C206.249 22.6868 206.172 22.6868 206.085 22.6868C205.282 22.6868 204.512 22.3173 203.944 21.6597C203.376 21.002 203.057 20.11 203.057 19.18C203.057 17.205 204.413 15.6352 206.085 15.6352Z" fill="url(#paint0_linear_126_20469)"/>
<path d="M178.756 76.2667H26.719C21.4128 76.2667 17.1038 73.3657 17.1038 69.7931V18.207C17.1038 14.6345 21.4128 11.7334 26.719 11.7334H178.756C184.062 11.7334 188.371 14.6345 188.371 18.207V69.7931C188.371 73.3657 184.062 76.2667 178.756 76.2667Z" stroke="#F1F5F9" stroke-opacity="0.8" stroke-miterlimit="10"/>
<path d="M26.6852 12H179.979V76H26.6852V12Z" stroke="#F1F5F9" stroke-opacity="0.34" stroke-miterlimit="10"/>
<path d="M71.5926 28.088H76.0566L67.9606 33.784L67.5126 33.96L62.6326 37.176L62.3766 34.664L65.6886 31.992L71.5926 28.088ZM63.7686 39H60.5206V28.088H63.7686V39ZM68.8566 32.152L76.3766 39H72.0726L66.2966 33.736L68.8566 32.152ZM80.9665 27.304V29.8H77.9425V27.304H80.9665ZM77.9425 39V30.84H80.9665V39H77.9425ZM94.0205 31.368L94.0045 33.576C93.5139 33.5013 92.9325 33.432 92.2605 33.368C91.5885 33.2933 90.8899 33.2347 90.1645 33.192C89.4499 33.1387 88.7725 33.112 88.1325 33.112C87.5245 33.112 87.0179 33.176 86.6125 33.304C86.2072 33.4213 85.9032 33.6133 85.7005 33.88C85.4979 34.1467 85.3965 34.504 85.3965 34.952C85.3965 35.5707 85.5885 36.0133 85.9725 36.28C86.3565 36.536 87.0019 36.664 87.9085 36.664C88.6232 36.664 89.3805 36.5947 90.1805 36.456C90.9912 36.3067 91.8285 36.104 92.6925 35.848C93.5672 35.5813 94.4525 35.2827 95.3485 34.952V36.488C94.8792 36.744 94.3512 37.0267 93.7645 37.336C93.1779 37.6453 92.5432 37.9387 91.8605 38.216C91.1779 38.4933 90.4632 38.7227 89.7165 38.904C88.9805 39.0747 88.2179 39.16 87.4285 39.16C86.3725 39.16 85.4659 39.032 84.7085 38.776C83.9619 38.5093 83.3859 38.072 82.9805 37.464C82.5752 36.8453 82.3725 36.024 82.3725 35C82.3725 33.9227 82.6179 33.0693 83.1085 32.44C83.6099 31.8107 84.3085 31.3627 85.2045 31.096C86.1005 30.8187 87.1405 30.68 88.3245 30.68C89.4659 30.68 90.5112 30.76 91.4605 30.92C92.4205 31.0693 93.2739 31.2187 94.0205 31.368ZM92.5005 27H95.5245V39H92.8685L92.5005 37.048V27ZM108.583 31.368L108.567 33.576C108.076 33.5013 107.495 33.432 106.823 33.368C106.151 33.2933 105.452 33.2347 104.727 33.192C104.012 33.1387 103.335 33.112 102.695 33.112C102.087 33.112 101.58 33.176 101.175 33.304C100.77 33.4213 100.466 33.6133 100.263 33.88C100.06 34.1467 99.959 34.504 99.959 34.952C99.959 35.5707 100.151 36.0133 100.535 36.28C100.919 36.536 101.564 36.664 102.471 36.664C103.186 36.664 103.943 36.5947 104.743 36.456C105.554 36.3067 106.391 36.104 107.255 35.848C108.13 35.5813 109.015 35.2827 109.911 34.952V36.488C109.442 36.744 108.914 37.0267 108.327 37.336C107.74 37.6453 107.106 37.9387 106.423 38.216C105.74 38.4933 105.026 38.7227 104.279 38.904C103.543 39.0747 102.78 39.16 101.991 39.16C100.935 39.16 100.028 39.032 99.271 38.776C98.5244 38.5093 97.9484 38.072 97.543 37.464C97.1377 36.8453 96.935 36.024 96.935 35C96.935 33.9227 97.1804 33.0693 97.671 32.44C98.1724 31.8107 98.871 31.3627 99.767 31.096C100.663 30.8187 101.703 30.68 102.887 30.68C104.028 30.68 105.074 30.76 106.023 30.92C106.983 31.0693 107.836 31.2187 108.583 31.368ZM107.063 27H110.087V39H107.431L107.063 37.048V27ZM114.842 27.304V29.8H111.818V27.304H114.842ZM111.818 39V30.84H114.842V39H111.818ZM123.176 36.84C123.986 36.84 124.722 36.8187 125.384 36.776C126.045 36.7227 126.621 36.664 127.112 36.6C127.613 36.5253 128.024 36.4667 128.344 36.424L128.952 38.6C128.45 38.7173 127.858 38.824 127.176 38.92C126.504 39.016 125.794 39.0907 125.048 39.144C124.312 39.1973 123.597 39.224 122.904 39.224C121.357 39.224 120.093 39.0747 119.112 38.776C118.13 38.4773 117.405 38.0133 116.936 37.384C116.477 36.744 116.248 35.9227 116.248 34.92C116.248 33.9067 116.493 33.0853 116.984 32.456C117.485 31.8267 118.216 31.368 119.176 31.08C120.136 30.7813 121.314 30.632 122.712 30.632C123.682 30.632 124.562 30.7013 125.352 30.84C126.141 30.968 126.818 31.176 127.384 31.464C127.949 31.752 128.381 32.1307 128.68 32.6C128.989 33.0693 129.144 33.6347 129.144 34.296C129.144 34.424 129.138 34.5787 129.128 34.76C129.117 34.9413 129.106 35.112 129.096 35.272C129.085 35.4213 129.074 35.5333 129.064 35.608H117.88V34.04H126.536L126.2 34.6C126.2 34.1413 126.109 33.768 125.928 33.48C125.746 33.192 125.4 32.984 124.888 32.856C124.376 32.7173 123.613 32.648 122.6 32.648C121.704 32.648 121 32.7173 120.488 32.856C119.986 32.984 119.634 33.2027 119.432 33.512C119.24 33.8213 119.144 34.248 119.144 34.792C119.144 35.2187 119.202 35.5707 119.32 35.848C119.437 36.1147 119.645 36.3227 119.944 36.472C120.242 36.6107 120.653 36.7067 121.176 36.76C121.698 36.8133 122.365 36.84 123.176 36.84ZM142.456 36.68C142.456 37.352 142.248 37.8747 141.832 38.248C141.416 38.6107 140.781 38.8613 139.928 39C139.085 39.1493 137.992 39.224 136.648 39.224C135.827 39.224 135.016 39.1867 134.216 39.112C133.416 39.0373 132.685 38.9467 132.024 38.84C131.373 38.7333 130.829 38.6267 130.392 38.52L130.904 36.568C131.384 36.664 131.955 36.7653 132.616 36.872C133.288 36.968 134.013 37.048 134.792 37.112C135.571 37.176 136.371 37.208 137.192 37.208C137.821 37.208 138.312 37.1973 138.664 37.176C139.027 37.144 139.277 37.0907 139.416 37.016C139.565 36.9307 139.64 36.8133 139.64 36.664C139.64 36.504 139.581 36.3867 139.464 36.312C139.357 36.2267 139.181 36.168 138.936 36.136C138.691 36.0933 138.365 36.0613 137.96 36.04L133.976 35.816C133.059 35.7733 132.323 35.656 131.768 35.464C131.224 35.2613 130.829 34.9733 130.584 34.6C130.349 34.2267 130.232 33.7413 130.232 33.144C130.232 32.4507 130.467 31.9227 130.936 31.56C131.405 31.1973 132.088 30.9467 132.984 30.808C133.891 30.6693 135 30.6 136.312 30.6C136.792 30.6 137.288 30.6213 137.8 30.664C138.323 30.696 138.84 30.7387 139.352 30.792C139.875 30.8453 140.355 30.904 140.792 30.968C141.24 31.0213 141.624 31.0747 141.944 31.128L141.496 33.096C140.941 32.9893 140.333 32.8987 139.672 32.824C139.021 32.7493 138.349 32.6907 137.656 32.648C136.973 32.5947 136.291 32.568 135.608 32.568C134.947 32.568 134.429 32.584 134.056 32.616C133.683 32.648 133.421 32.7013 133.272 32.776C133.123 32.8507 133.048 32.9627 133.048 33.112C133.048 33.2613 133.091 33.3733 133.176 33.448C133.272 33.5227 133.411 33.576 133.592 33.608C133.784 33.64 134.019 33.6613 134.296 33.672L138.28 33.912C139.197 33.9653 139.965 34.088 140.584 34.28C141.203 34.4613 141.667 34.744 141.976 35.128C142.296 35.512 142.456 36.0293 142.456 36.68ZM51.6971 65H48.7571L51.9571 51.96H54.8971L51.6971 65ZM60.1771 65H57.2371L60.4371 51.96H63.3771L60.1771 65ZM47.3571 54.7H66.6371L66.0971 56.92H46.8171L47.3571 54.7ZM46.0571 60.02H65.3371L64.7971 62.24H45.5171L46.0571 60.02ZM77.3882 65H72.3082L79.5882 57.18C80.1482 56.5933 80.6949 56.08 81.2282 55.64C81.7749 55.2 82.3815 54.8467 83.0482 54.58C82.4349 54.6467 81.7282 54.7 80.9282 54.74C80.1415 54.7667 79.3749 54.78 78.6282 54.78H68.3682V51.36H87.5082V54.4L77.3882 65ZM86.3104 67.76L86.5704 65.9C86.7437 65.9133 86.9037 65.9267 87.0504 65.94C87.2104 65.9667 87.3571 65.98 87.4904 65.98C87.8371 65.98 88.0637 65.9333 88.1704 65.84C88.2904 65.76 88.3504 65.5933 88.3504 65.34V65H86.6304V61H90.5504V65.44C90.5504 66.2133 90.3171 66.82 89.8504 67.26C89.3837 67.7 88.6504 67.92 87.6504 67.92C87.1837 67.92 86.7371 67.8667 86.3104 67.76ZM114.454 58.18C114.454 59.4067 114.227 60.4733 113.774 61.38C113.321 62.2733 112.634 63.0067 111.714 63.58C110.807 64.1533 109.654 64.58 108.254 64.86C106.867 65.14 105.241 65.28 103.374 65.28C101.494 65.28 99.854 65.14 98.454 64.86C97.0673 64.58 95.914 64.1533 94.994 63.58C94.0873 63.0067 93.4073 62.2733 92.954 61.38C92.5007 60.4733 92.274 59.4067 92.274 58.18C92.274 56.94 92.5007 55.8733 92.954 54.98C93.4073 54.0867 94.0873 53.3533 94.994 52.78C95.914 52.2067 97.0673 51.78 98.454 51.5C99.854 51.22 101.494 51.08 103.374 51.08C105.241 51.08 106.867 51.22 108.254 51.5C109.654 51.78 110.807 52.2067 111.714 52.78C112.634 53.3533 113.321 54.0867 113.774 54.98C114.227 55.8733 114.454 56.94 114.454 58.18ZM110.394 58.18C110.394 57.26 110.154 56.54 109.674 56.02C109.207 55.4867 108.461 55.1133 107.434 54.9C106.407 54.6733 105.054 54.56 103.374 54.56C101.694 54.56 100.334 54.6733 99.294 54.9C98.2673 55.1133 97.514 55.4867 97.034 56.02C96.5673 56.54 96.334 57.26 96.334 58.18C96.334 59.1 96.5673 59.8267 97.034 60.36C97.514 60.88 98.2673 61.2533 99.294 61.48C100.334 61.6933 101.694 61.8 103.374 61.8C105.054 61.8 106.407 61.6933 107.434 61.48C108.461 61.2533 109.207 60.88 109.674 60.36C110.154 59.8267 110.394 59.1 110.394 58.18ZM138.321 58.18C138.321 59.4067 138.095 60.4733 137.641 61.38C137.188 62.2733 136.501 63.0067 135.581 63.58C134.675 64.1533 133.521 64.58 132.121 64.86C130.735 65.14 129.108 65.28 127.241 65.28C125.361 65.28 123.721 65.14 122.321 64.86C120.935 64.58 119.781 64.1533 118.861 63.58C117.955 63.0067 117.275 62.2733 116.821 61.38C116.368 60.4733 116.141 59.4067 116.141 58.18C116.141 56.94 116.368 55.8733 116.821 54.98C117.275 54.0867 117.955 53.3533 118.861 52.78C119.781 52.2067 120.935 51.78 122.321 51.5C123.721 51.22 125.361 51.08 127.241 51.08C129.108 51.08 130.735 51.22 132.121 51.5C133.521 51.78 134.675 52.2067 135.581 52.78C136.501 53.3533 137.188 54.0867 137.641 54.98C138.095 55.8733 138.321 56.94 138.321 58.18ZM134.261 58.18C134.261 57.26 134.021 56.54 133.541 56.02C133.075 55.4867 132.328 55.1133 131.301 54.9C130.275 54.6733 128.921 54.56 127.241 54.56C125.561 54.56 124.201 54.6733 123.161 54.9C122.135 55.1133 121.381 55.4867 120.901 56.02C120.435 56.54 120.201 57.26 120.201 58.18C120.201 59.1 120.435 59.8267 120.901 60.36C121.381 60.88 122.135 61.2533 123.161 61.48C124.201 61.6933 125.561 61.8 127.241 61.8C128.921 61.8 130.275 61.6933 131.301 61.48C132.328 61.2533 133.075 60.88 133.541 60.36C134.021 59.8267 134.261 59.1 134.261 58.18ZM162.188 58.18C162.188 59.4067 161.962 60.4733 161.508 61.38C161.055 62.2733 160.368 63.0067 159.448 63.58C158.542 64.1533 157.388 64.58 155.988 64.86C154.602 65.14 152.975 65.28 151.108 65.28C149.228 65.28 147.588 65.14 146.188 64.86C144.802 64.58 143.648 64.1533 142.728 63.58C141.822 63.0067 141.142 62.2733 140.688 61.38C140.235 60.4733 140.008 59.4067 140.008 58.18C140.008 56.94 140.235 55.8733 140.688 54.98C141.142 54.0867 141.822 53.3533 142.728 52.78C143.648 52.2067 144.802 51.78 146.188 51.5C147.588 51.22 149.228 51.08 151.108 51.08C152.975 51.08 154.602 51.22 155.988 51.5C157.388 51.78 158.542 52.2067 159.448 52.78C160.368 53.3533 161.055 54.0867 161.508 54.98C161.962 55.8733 162.188 56.94 162.188 58.18ZM158.128 58.18C158.128 57.26 157.888 56.54 157.408 56.02C156.942 55.4867 156.195 55.1133 155.168 54.9C154.142 54.6733 152.788 54.56 151.108 54.56C149.428 54.56 148.068 54.6733 147.028 54.9C146.002 55.1133 145.248 55.4867 144.768 56.02C144.302 56.54 144.068 57.26 144.068 58.18C144.068 59.1 144.302 59.8267 144.768 60.36C145.248 60.88 146.002 61.2533 147.028 61.48C148.068 61.6933 149.428 61.8 151.108 61.8C152.788 61.8 154.142 61.6933 155.168 61.48C156.195 61.2533 156.942 60.88 157.408 60.36C157.888 59.8267 158.128 59.1 158.128 58.18Z" fill="white"/>
<path d="M442.085 15.6352C442.172 15.6352 442.249 15.6478 442.336 15.6478V11.2674H438.566C433.855 11.2674 429.931 7.39347 429.035 2.24083C428.925 1.60909 428.63 1.04078 428.2 0.632343C427.77 0.223904 427.231 0.000486929 426.674 0H251.998C250.851 0 249.867 0.936844 249.638 2.24083C249.192 4.78829 248 7.07893 246.263 8.72418C244.526 10.3694 242.351 11.268 240.107 11.2674H236.336V15.6478C236.424 15.6352 236.5 15.6352 236.588 15.6352C237.391 15.6352 238.161 16.0046 238.728 16.6623C239.296 17.3199 239.615 18.2119 239.615 19.142C239.615 20.0721 239.296 20.964 238.728 21.6217C238.161 22.2794 237.391 22.6488 236.588 22.6488C236.5 22.6488 236.424 22.6362 236.336 22.6362V25.586C236.424 25.5733 236.5 25.5733 236.588 25.5733C237.391 25.5733 238.161 25.9428 238.728 26.6004C239.296 27.2581 239.615 28.1501 239.615 29.0801C239.615 30.0102 239.296 30.9022 238.728 31.5598C238.161 32.2175 237.391 32.587 236.588 32.587C236.5 32.587 236.424 32.5743 236.336 32.5743V35.5241C236.424 35.5114 236.5 35.5114 236.588 35.5114C238.26 35.5241 239.615 37.0939 239.615 39.0309C239.615 39.4915 239.537 39.9475 239.385 40.3729C239.233 40.7984 239.01 41.185 238.728 41.5106C238.447 41.8363 238.114 42.0946 237.746 42.2708C237.379 42.4471 236.985 42.5378 236.588 42.5378C236.5 42.5378 236.424 42.5251 236.336 42.5251V45.4749C236.424 45.4622 236.5 45.4622 236.588 45.4622C238.26 45.4622 239.615 47.0447 239.615 48.9817C239.615 50.9187 238.26 52.4886 236.588 52.4886C236.5 52.4886 236.424 52.4759 236.336 52.4759V55.4257C236.424 55.413 236.5 55.413 236.588 55.413C237.391 55.413 238.161 55.7825 238.728 56.4402C239.296 57.0978 239.615 57.9898 239.615 58.9199C239.615 59.8499 239.296 60.7419 238.728 61.3996C238.161 62.0572 237.391 62.4267 236.588 62.4267C236.5 62.4267 236.424 62.414 236.336 62.414V65.3638C236.424 65.3512 236.5 65.3512 236.588 65.3512C237.391 65.3512 238.161 65.7206 238.728 66.3783C239.296 67.036 239.615 67.9279 239.615 68.858C239.615 69.7881 239.296 70.6801 238.728 71.3377C238.161 71.9954 237.391 72.3648 236.588 72.3648C236.5 72.3648 236.424 72.3522 236.336 72.3522V76.7326H240.107C244.818 76.7326 248.741 80.6065 249.638 85.7592C249.747 86.3909 250.042 86.9592 250.473 87.3677C250.903 87.7761 251.442 87.9995 251.998 88H426.674C427.822 88 428.806 87.0632 429.035 85.7592C429.48 83.2117 430.673 80.9211 432.41 79.2758C434.147 77.6306 436.322 76.732 438.566 76.7326H442.336V72.3648C442.249 72.3775 442.172 72.3775 442.085 72.3775C441.282 72.3775 440.512 72.008 439.944 71.3504C439.376 70.6927 439.057 69.8007 439.057 68.8707C439.057 67.9406 439.376 67.0486 439.944 66.391C440.512 65.7333 441.282 65.3638 442.085 65.3638C442.172 65.3638 442.249 65.3765 442.336 65.3765V62.4267C442.249 62.4394 442.172 62.4394 442.085 62.4394C441.282 62.4394 440.512 62.0699 439.944 61.4122C439.376 60.7546 439.057 59.8626 439.057 58.9325C439.057 58.0025 439.376 57.1105 439.944 56.4528C440.512 55.7952 441.282 55.4257 442.085 55.4257C442.172 55.4257 442.249 55.4384 442.336 55.4384V52.4886C442.249 52.5012 442.172 52.5012 442.085 52.5012C441.282 52.5012 440.512 52.1318 439.944 51.4741C439.376 50.8164 439.057 49.9245 439.057 48.9944C439.057 48.0643 439.376 47.1723 439.944 46.5147C440.512 45.857 441.282 45.4876 442.085 45.4876C442.172 45.4876 442.249 45.5002 442.336 45.5002V42.5504C442.249 42.5631 442.172 42.5631 442.085 42.5631C441.282 42.5631 440.512 42.1936 439.944 41.536C439.376 40.8783 439.057 39.9863 439.057 39.0563C439.057 38.1262 439.376 37.2342 439.944 36.5765C440.512 35.9189 441.282 35.5494 442.085 35.5494C442.172 35.5494 442.249 35.5621 442.336 35.5621V32.6123C442.249 32.6249 442.172 32.6249 442.085 32.6249C441.282 32.6249 440.512 32.2555 439.944 31.5978C439.376 30.9402 439.057 30.0482 439.057 29.1181C439.057 28.188 439.376 27.2961 439.944 26.6384C440.512 25.9807 441.282 25.6113 442.085 25.6113C442.172 25.6113 442.249 25.6239 442.336 25.6239V22.6741C442.249 22.6868 442.172 22.6868 442.085 22.6868C441.282 22.6868 440.512 22.3173 439.944 21.6597C439.376 21.002 439.057 20.11 439.057 19.18C439.057 17.205 440.413 15.6352 442.085 15.6352Z" fill="url(#paint1_linear_126_20469)"/>
<path d="M414.756 76.2667H262.719C257.413 76.2667 253.104 73.3657 253.104 69.7931V18.207C253.104 14.6345 257.413 11.7334 262.719 11.7334H414.756C420.062 11.7334 424.371 14.6345 424.371 18.207V69.7931C424.371 73.3657 420.062 76.2667 414.756 76.2667Z" stroke="#F1F5F9" stroke-opacity="0.8" stroke-miterlimit="10"/>
<path d="M262.685 12H415.979V76H262.685V12Z" stroke="#F1F5F9" stroke-opacity="0.34" stroke-miterlimit="10"/>
<path d="M281.277 30.872H274.797V28.088H290.989V30.872H284.525V39H281.277V30.872ZM297.574 36.84C298.385 36.84 299.121 36.8187 299.782 36.776C300.443 36.7227 301.019 36.664 301.51 36.6C302.011 36.5253 302.422 36.4667 302.742 36.424L303.35 38.6C302.849 38.7173 302.257 38.824 301.574 38.92C300.902 39.016 300.193 39.0907 299.446 39.144C298.71 39.1973 297.995 39.224 297.302 39.224C295.755 39.224 294.491 39.0747 293.51 38.776C292.529 38.4773 291.803 38.0133 291.334 37.384C290.875 36.744 290.646 35.9227 290.646 34.92C290.646 33.9067 290.891 33.0853 291.382 32.456C291.883 31.8267 292.614 31.368 293.574 31.08C294.534 30.7813 295.713 30.632 297.11 30.632C298.081 30.632 298.961 30.7013 299.75 30.84C300.539 30.968 301.217 31.176 301.782 31.464C302.347 31.752 302.779 32.1307 303.078 32.6C303.387 33.0693 303.542 33.6347 303.542 34.296C303.542 34.424 303.537 34.5787 303.526 34.76C303.515 34.9413 303.505 35.112 303.494 35.272C303.483 35.4213 303.473 35.5333 303.462 35.608H292.278V34.04H300.934L300.598 34.6C300.598 34.1413 300.507 33.768 300.326 33.48C300.145 33.192 299.798 32.984 299.286 32.856C298.774 32.7173 298.011 32.648 296.998 32.648C296.102 32.648 295.398 32.7173 294.886 32.856C294.385 32.984 294.033 33.2027 293.83 33.512C293.638 33.8213 293.542 34.248 293.542 34.792C293.542 35.2187 293.601 35.5707 293.718 35.848C293.835 36.1147 294.043 36.3227 294.342 36.472C294.641 36.6107 295.051 36.7067 295.574 36.76C296.097 36.8133 296.763 36.84 297.574 36.84ZM311.558 36.84C312.369 36.84 313.105 36.8187 313.766 36.776C314.428 36.7227 315.004 36.664 315.494 36.6C315.996 36.5253 316.406 36.4667 316.726 36.424L317.334 38.6C316.833 38.7173 316.241 38.824 315.558 38.92C314.886 39.016 314.177 39.0907 313.43 39.144C312.694 39.1973 311.98 39.224 311.286 39.224C309.74 39.224 308.476 39.0747 307.494 38.776C306.513 38.4773 305.788 38.0133 305.318 37.384C304.86 36.744 304.63 35.9227 304.63 34.92C304.63 33.9067 304.876 33.0853 305.366 32.456C305.868 31.8267 306.598 31.368 307.558 31.08C308.518 30.7813 309.697 30.632 311.094 30.632C312.065 30.632 312.945 30.7013 313.734 30.84C314.524 30.968 315.201 31.176 315.766 31.464C316.332 31.752 316.764 32.1307 317.062 32.6C317.372 33.0693 317.526 33.6347 317.526 34.296C317.526 34.424 317.521 34.5787 317.51 34.76C317.5 34.9413 317.489 35.112 317.478 35.272C317.468 35.4213 317.457 35.5333 317.446 35.608H306.262V34.04H314.918L314.582 34.6C314.582 34.1413 314.492 33.768 314.31 33.48C314.129 33.192 313.782 32.984 313.27 32.856C312.758 32.7173 311.996 32.648 310.982 32.648C310.086 32.648 309.382 32.7173 308.87 32.856C308.369 32.984 308.017 33.2027 307.814 33.512C307.622 33.8213 307.526 34.248 307.526 34.792C307.526 35.2187 307.585 35.5707 307.702 35.848C307.82 36.1147 308.028 36.3227 308.326 36.472C308.625 36.6107 309.036 36.7067 309.558 36.76C310.081 36.8133 310.748 36.84 311.558 36.84ZM331.943 34.472V39H328.919V34.984C328.919 34.568 328.823 34.2267 328.631 33.96C328.449 33.6827 328.172 33.48 327.799 33.352C327.425 33.2133 326.961 33.144 326.407 33.144C325.457 33.144 324.369 33.288 323.143 33.576C321.927 33.864 320.599 34.248 319.159 34.728V33.032C319.639 32.776 320.183 32.5093 320.791 32.232C321.399 31.944 322.06 31.6827 322.775 31.448C323.489 31.2027 324.236 31.0053 325.015 30.856C325.793 30.7067 326.583 30.632 327.383 30.632C328.364 30.632 329.191 30.7653 329.863 31.032C330.545 31.288 331.063 31.6987 331.415 32.264C331.767 32.8187 331.943 33.5547 331.943 34.472ZM318.935 39V30.84H321.591L321.959 32.808V39H318.935ZM343.274 31.448L346.298 31.224V39H343.642L343.274 37.16V31.448ZM346.298 31.208L345.002 33.512C344.511 33.448 343.925 33.3893 343.242 33.336C342.559 33.272 341.85 33.2187 341.114 33.176C340.378 33.1333 339.679 33.112 339.018 33.112C338.389 33.112 337.861 33.176 337.434 33.304C337.018 33.4213 336.703 33.608 336.49 33.864C336.277 34.12 336.17 34.4613 336.17 34.888C336.17 35.5387 336.351 35.9973 336.714 36.264C337.077 36.5307 337.695 36.664 338.57 36.664C339.285 36.664 340.047 36.5893 340.858 36.44C341.679 36.2907 342.533 36.0827 343.418 35.816C344.303 35.5493 345.205 35.2453 346.122 34.904V36.552C345.642 36.8293 345.098 37.1227 344.49 37.432C343.893 37.7307 343.242 38.0133 342.538 38.28C341.845 38.536 341.114 38.7493 340.346 38.92C339.578 39.08 338.789 39.16 337.978 39.16C337.018 39.16 336.17 39.0267 335.434 38.76C334.709 38.4827 334.143 38.04 333.738 37.432C333.343 36.8133 333.146 36.0027 333.146 35C333.146 33.9013 333.402 33.0427 333.914 32.424C334.437 31.7947 335.162 31.3467 336.09 31.08C337.018 30.8133 338.095 30.68 339.322 30.68C340.73 30.68 342.015 30.7387 343.178 30.856C344.351 30.9627 345.391 31.08 346.298 31.208ZM360.863 31.208L359.567 33.512C359.055 33.448 358.452 33.3893 357.759 33.336C357.066 33.272 356.346 33.2187 355.599 33.176C354.852 33.1333 354.143 33.112 353.471 33.112C352.842 33.112 352.314 33.16 351.887 33.256C351.471 33.352 351.156 33.512 350.943 33.736C350.73 33.9493 350.623 34.2373 350.623 34.6C350.623 35.1013 350.804 35.4693 351.167 35.704C351.53 35.928 352.148 36.04 353.023 36.04C353.748 36.04 354.532 36.0027 355.375 35.928C356.218 35.8533 357.087 35.72 357.983 35.528C358.89 35.336 359.791 35.0747 360.687 34.744V36.392C360.111 36.7227 359.407 37.0373 358.575 37.336C357.743 37.6347 356.831 37.88 355.839 38.072C354.858 38.264 353.844 38.36 352.799 38.36C351.679 38.36 350.73 38.2373 349.951 37.992C349.183 37.7467 348.596 37.3467 348.191 36.792C347.796 36.2373 347.599 35.5067 347.599 34.6C347.599 33.608 347.855 32.8293 348.367 32.264C348.879 31.688 349.604 31.2827 350.543 31.048C351.492 30.8027 352.607 30.68 353.887 30.68C355.295 30.68 356.58 30.7387 357.743 30.856C358.916 30.9627 359.956 31.08 360.863 31.208ZM360.863 31.224V37.544C360.863 38.6213 360.612 39.496 360.111 40.168C359.61 40.84 358.842 41.3307 357.807 41.64C356.783 41.96 355.466 42.12 353.855 42.12C353.204 42.12 352.543 42.088 351.871 42.024C351.199 41.9707 350.543 41.8853 349.903 41.768C349.274 41.6613 348.671 41.528 348.095 41.368L348.719 39.128C349.594 39.352 350.474 39.5173 351.359 39.624C352.244 39.7307 353.14 39.784 354.047 39.784C355.114 39.784 355.935 39.6933 356.511 39.512C357.098 39.3307 357.498 39.0693 357.711 38.728C357.935 38.376 358.026 37.9493 357.983 37.448L357.839 37.128V31.448L360.863 31.224ZM369.011 36.84C369.822 36.84 370.558 36.8187 371.219 36.776C371.881 36.7227 372.457 36.664 372.947 36.6C373.449 36.5253 373.859 36.4667 374.179 36.424L374.787 38.6C374.286 38.7173 373.694 38.824 373.011 38.92C372.339 39.016 371.63 39.0907 370.883 39.144C370.147 39.1973 369.433 39.224 368.739 39.224C367.193 39.224 365.929 39.0747 364.947 38.776C363.966 38.4773 363.241 38.0133 362.771 37.384C362.313 36.744 362.083 35.9227 362.083 34.92C362.083 33.9067 362.329 33.0853 362.819 32.456C363.321 31.8267 364.051 31.368 365.011 31.08C365.971 30.7813 367.15 30.632 368.547 30.632C369.518 30.632 370.398 30.7013 371.187 30.84C371.977 30.968 372.654 31.176 373.219 31.464C373.785 31.752 374.217 32.1307 374.515 32.6C374.825 33.0693 374.979 33.6347 374.979 34.296C374.979 34.424 374.974 34.5787 374.963 34.76C374.953 34.9413 374.942 35.112 374.931 35.272C374.921 35.4213 374.91 35.5333 374.899 35.608H363.715V34.04H372.371L372.035 34.6C372.035 34.1413 371.945 33.768 371.763 33.48C371.582 33.192 371.235 32.984 370.723 32.856C370.211 32.7173 369.449 32.648 368.435 32.648C367.539 32.648 366.835 32.7173 366.323 32.856C365.822 32.984 365.47 33.2027 365.267 33.512C365.075 33.8213 364.979 34.248 364.979 34.792C364.979 35.2187 365.038 35.5707 365.155 35.848C365.273 36.1147 365.481 36.3227 365.779 36.472C366.078 36.6107 366.489 36.7067 367.011 36.76C367.534 36.8133 368.201 36.84 369.011 36.84ZM376.388 39V30.84H379.044L379.412 33.032V39H376.388ZM385.284 30.632V33.352C384.441 33.352 383.662 33.3893 382.948 33.464C382.244 33.5387 381.556 33.6667 380.884 33.848C380.222 34.0187 379.545 34.2427 378.852 34.52C378.169 34.7867 377.422 35.1173 376.612 35.512V33.928C377.049 33.5973 377.566 33.2453 378.164 32.872C378.772 32.488 379.449 32.1253 380.196 31.784C380.942 31.4427 381.742 31.1653 382.596 30.952C383.46 30.7387 384.356 30.632 385.284 30.632ZM398.651 36.68C398.651 37.352 398.443 37.8747 398.027 38.248C397.611 38.6107 396.977 38.8613 396.123 39C395.281 39.1493 394.187 39.224 392.843 39.224C392.022 39.224 391.211 39.1867 390.411 39.112C389.611 39.0373 388.881 38.9467 388.219 38.84C387.569 38.7333 387.025 38.6267 386.587 38.52L387.099 36.568C387.579 36.664 388.15 36.7653 388.811 36.872C389.483 36.968 390.209 37.048 390.987 37.112C391.766 37.176 392.566 37.208 393.387 37.208C394.017 37.208 394.507 37.1973 394.859 37.176C395.222 37.144 395.473 37.0907 395.611 37.016C395.761 36.9307 395.835 36.8133 395.835 36.664C395.835 36.504 395.777 36.3867 395.659 36.312C395.553 36.2267 395.377 36.168 395.131 36.136C394.886 36.0933 394.561 36.0613 394.155 36.04L390.171 35.816C389.254 35.7733 388.518 35.656 387.963 35.464C387.419 35.2613 387.025 34.9733 386.779 34.6C386.545 34.2267 386.427 33.7413 386.427 33.144C386.427 32.4507 386.662 31.9227 387.131 31.56C387.601 31.1973 388.283 30.9467 389.179 30.808C390.086 30.6693 391.195 30.6 392.507 30.6C392.987 30.6 393.483 30.6213 393.995 30.664C394.518 30.696 395.035 30.7387 395.547 30.792C396.07 30.8453 396.55 30.904 396.987 30.968C397.435 31.0213 397.819 31.0747 398.139 31.128L397.691 33.096C397.137 32.9893 396.529 32.8987 395.867 32.824C395.217 32.7493 394.545 32.6907 393.851 32.648C393.169 32.5947 392.486 32.568 391.803 32.568C391.142 32.568 390.625 32.584 390.251 32.616C389.878 32.648 389.617 32.7013 389.467 32.776C389.318 32.8507 389.243 32.9627 389.243 33.112C389.243 33.2613 389.286 33.3733 389.371 33.448C389.467 33.5227 389.606 33.576 389.787 33.608C389.979 33.64 390.214 33.6613 390.491 33.672L394.475 33.912C395.393 33.9653 396.161 34.088 396.779 34.28C397.398 34.4613 397.862 34.744 398.171 35.128C398.491 35.512 398.651 36.0293 398.651 36.68ZM278.73 65H275.79L278.99 51.96H281.93L278.73 65ZM287.21 65H284.27L287.47 51.96H290.41L287.21 65ZM274.39 54.7H293.67L293.13 56.92H273.85L274.39 54.7ZM273.09 60.02H292.37L291.83 62.24H272.55L273.09 60.02ZM304.141 65H300.081V57.66C300.081 57.2467 300.088 56.8267 300.101 56.4C300.128 55.9733 300.148 55.5867 300.161 55.24C300.188 54.88 300.215 54.5933 300.241 54.38C300.268 54.1667 300.281 54.06 300.281 54.06L300.361 51.36H304.141V65ZM301.401 54.94L295.141 56.82V53.36L300.361 51.36L301.401 54.94ZM328.87 58.18C328.87 59.4067 328.643 60.4733 328.19 61.38C327.737 62.2733 327.05 63.0067 326.13 63.58C325.223 64.1533 324.07 64.58 322.67 64.86C321.283 65.14 319.657 65.28 317.79 65.28C315.91 65.28 314.27 65.14 312.87 64.86C311.483 64.58 310.33 64.1533 309.41 63.58C308.503 63.0067 307.823 62.2733 307.37 61.38C306.917 60.4733 306.69 59.4067 306.69 58.18C306.69 56.94 306.917 55.8733 307.37 54.98C307.823 54.0867 308.503 53.3533 309.41 52.78C310.33 52.2067 311.483 51.78 312.87 51.5C314.27 51.22 315.91 51.08 317.79 51.08C319.657 51.08 321.283 51.22 322.67 51.5C324.07 51.78 325.223 52.2067 326.13 52.78C327.05 53.3533 327.737 54.0867 328.19 54.98C328.643 55.8733 328.87 56.94 328.87 58.18ZM324.81 58.18C324.81 57.26 324.57 56.54 324.09 56.02C323.623 55.4867 322.877 55.1133 321.85 54.9C320.823 54.6733 319.47 54.56 317.79 54.56C316.11 54.56 314.75 54.6733 313.71 54.9C312.683 55.1133 311.93 55.4867 311.45 56.02C310.983 56.54 310.75 57.26 310.75 58.18C310.75 59.1 310.983 59.8267 311.45 60.36C311.93 60.88 312.683 61.2533 313.71 61.48C314.75 61.6933 316.11 61.8 317.79 61.8C319.47 61.8 320.823 61.6933 321.85 61.48C322.877 61.2533 323.623 60.88 324.09 60.36C324.57 59.8267 324.81 59.1 324.81 58.18ZM330.277 67.76L330.537 65.9C330.71 65.9133 330.87 65.9267 331.017 65.94C331.177 65.9667 331.324 65.98 331.457 65.98C331.804 65.98 332.03 65.9333 332.137 65.84C332.257 65.76 332.317 65.5933 332.317 65.34V65H330.597V61H334.517V65.44C334.517 66.2133 334.284 66.82 333.817 67.26C333.35 67.7 332.617 67.92 331.617 67.92C331.15 67.92 330.704 67.8667 330.277 67.76ZM358.421 58.18C358.421 59.4067 358.194 60.4733 357.741 61.38C357.287 62.2733 356.601 63.0067 355.681 63.58C354.774 64.1533 353.621 64.58 352.221 64.86C350.834 65.14 349.207 65.28 347.341 65.28C345.461 65.28 343.821 65.14 342.421 64.86C341.034 64.58 339.881 64.1533 338.961 63.58C338.054 63.0067 337.374 62.2733 336.921 61.38C336.467 60.4733 336.241 59.4067 336.241 58.18C336.241 56.94 336.467 55.8733 336.921 54.98C337.374 54.0867 338.054 53.3533 338.961 52.78C339.881 52.2067 341.034 51.78 342.421 51.5C343.821 51.22 345.461 51.08 347.341 51.08C349.207 51.08 350.834 51.22 352.221 51.5C353.621 51.78 354.774 52.2067 355.681 52.78C356.601 53.3533 357.287 54.0867 357.741 54.98C358.194 55.8733 358.421 56.94 358.421 58.18ZM354.361 58.18C354.361 57.26 354.121 56.54 353.641 56.02C353.174 55.4867 352.427 55.1133 351.401 54.9C350.374 54.6733 349.021 54.56 347.341 54.56C345.661 54.56 344.301 54.6733 343.261 54.9C342.234 55.1133 341.481 55.4867 341.001 56.02C340.534 56.54 340.301 57.26 340.301 58.18C340.301 59.1 340.534 59.8267 341.001 60.36C341.481 60.88 342.234 61.2533 343.261 61.48C344.301 61.6933 345.661 61.8 347.341 61.8C349.021 61.8 350.374 61.6933 351.401 61.48C352.427 61.2533 353.174 60.88 353.641 60.36C354.121 59.8267 354.361 59.1 354.361 58.18ZM382.288 58.18C382.288 59.4067 382.061 60.4733 381.608 61.38C381.155 62.2733 380.468 63.0067 379.548 63.58C378.641 64.1533 377.488 64.58 376.088 64.86C374.701 65.14 373.075 65.28 371.208 65.28C369.328 65.28 367.688 65.14 366.288 64.86C364.901 64.58 363.748 64.1533 362.828 63.58C361.921 63.0067 361.241 62.2733 360.788 61.38C360.335 60.4733 360.108 59.4067 360.108 58.18C360.108 56.94 360.335 55.8733 360.788 54.98C361.241 54.0867 361.921 53.3533 362.828 52.78C363.748 52.2067 364.901 51.78 366.288 51.5C367.688 51.22 369.328 51.08 371.208 51.08C373.075 51.08 374.701 51.22 376.088 51.5C377.488 51.78 378.641 52.2067 379.548 52.78C380.468 53.3533 381.155 54.0867 381.608 54.98C382.061 55.8733 382.288 56.94 382.288 58.18ZM378.228 58.18C378.228 57.26 377.988 56.54 377.508 56.02C377.041 55.4867 376.295 55.1133 375.268 54.9C374.241 54.6733 372.888 54.56 371.208 54.56C369.528 54.56 368.168 54.6733 367.128 54.9C366.101 55.1133 365.348 55.4867 364.868 56.02C364.401 56.54 364.168 57.26 364.168 58.18C364.168 59.1 364.401 59.8267 364.868 60.36C365.348 60.88 366.101 61.2533 367.128 61.48C368.168 61.6933 369.528 61.8 371.208 61.8C372.888 61.8 374.241 61.6933 375.268 61.48C376.295 61.2533 377.041 60.88 377.508 60.36C377.988 59.8267 378.228 59.1 378.228 58.18ZM406.155 58.18C406.155 59.4067 405.928 60.4733 405.475 61.38C405.022 62.2733 404.335 63.0067 403.415 63.58C402.508 64.1533 401.355 64.58 399.955 64.86C398.568 65.14 396.942 65.28 395.075 65.28C393.195 65.28 391.555 65.14 390.155 64.86C388.768 64.58 387.615 64.1533 386.695 63.58C385.788 63.0067 385.108 62.2733 384.655 61.38C384.202 60.4733 383.975 59.4067 383.975 58.18C383.975 56.94 384.202 55.8733 384.655 54.98C385.108 54.0867 385.788 53.3533 386.695 52.78C387.615 52.2067 388.768 51.78 390.155 51.5C391.555 51.22 393.195 51.08 395.075 51.08C396.942 51.08 398.568 51.22 399.955 51.5C401.355 51.78 402.508 52.2067 403.415 52.78C404.335 53.3533 405.022 54.0867 405.475 54.98C405.928 55.8733 406.155 56.94 406.155 58.18ZM402.095 58.18C402.095 57.26 401.855 56.54 401.375 56.02C400.908 55.4867 400.162 55.1133 399.135 54.9C398.108 54.6733 396.755 54.56 395.075 54.56C393.395 54.56 392.035 54.6733 390.995 54.9C389.968 55.1133 389.215 55.4867 388.735 56.02C388.268 56.54 388.035 57.26 388.035 58.18C388.035 59.1 388.268 59.8267 388.735 60.36C389.215 60.88 389.968 61.2533 390.995 61.48C392.035 61.6933 393.395 61.8 395.075 61.8C396.755 61.8 398.108 61.6933 399.135 61.48C400.162 61.2533 400.908 60.88 401.375 60.36C401.855 59.8267 402.095 59.1 402.095 58.18Z" fill="white"/>
<path d="M713.042 15.6352C713.145 15.6352 713.234 15.6478 713.336 15.6478V11.2674H708.925C703.414 11.2674 698.824 7.39347 697.775 2.24083C697.647 1.60909 697.302 1.04078 696.798 0.632343C696.295 0.223904 695.664 0.000486929 695.013 0H490.659C489.317 0 488.166 0.936844 487.897 2.24083C487.377 4.78829 485.982 7.07893 483.949 8.72418C481.917 10.3694 479.373 11.268 476.748 11.2674H472.336V15.6478C472.439 15.6352 472.528 15.6352 472.63 15.6352C473.57 15.6352 474.471 16.0046 475.135 16.6623C475.799 17.3199 476.172 18.2119 476.172 19.142C476.172 20.0721 475.799 20.964 475.135 21.6217C474.471 22.2794 473.57 22.6488 472.63 22.6488C472.528 22.6488 472.439 22.6362 472.336 22.6362V25.586C472.439 25.5733 472.528 25.5733 472.63 25.5733C473.57 25.5733 474.471 25.9428 475.135 26.6004C475.799 27.2581 476.172 28.1501 476.172 29.0801C476.172 30.0102 475.799 30.9022 475.135 31.5598C474.471 32.2175 473.57 32.587 472.63 32.587C472.528 32.587 472.439 32.5743 472.336 32.5743V35.5241C472.439 35.5114 472.528 35.5114 472.63 35.5114C474.587 35.5241 476.172 37.0939 476.172 39.0309C476.172 39.4915 476.081 39.9475 475.903 40.3729C475.725 40.7984 475.464 41.185 475.135 41.5106C474.806 41.8363 474.416 42.0946 473.986 42.2708C473.556 42.4471 473.096 42.5378 472.63 42.5378C472.528 42.5378 472.439 42.5251 472.336 42.5251V45.4749C472.439 45.4622 472.528 45.4622 472.63 45.4622C474.587 45.4622 476.172 47.0447 476.172 48.9817C476.172 50.9187 474.587 52.4886 472.63 52.4886C472.528 52.4886 472.439 52.4759 472.336 52.4759V55.4257C472.439 55.413 472.528 55.413 472.63 55.413C473.57 55.413 474.471 55.7825 475.135 56.4402C475.799 57.0978 476.172 57.9898 476.172 58.9199C476.172 59.8499 475.799 60.7419 475.135 61.3996C474.471 62.0572 473.57 62.4267 472.63 62.4267C472.528 62.4267 472.439 62.414 472.336 62.414V65.3638C472.439 65.3512 472.528 65.3512 472.63 65.3512C473.57 65.3512 474.471 65.7206 475.135 66.3783C475.799 67.036 476.172 67.9279 476.172 68.858C476.172 69.7881 475.799 70.6801 475.135 71.3377C474.471 71.9954 473.57 72.3648 472.63 72.3648C472.528 72.3648 472.439 72.3522 472.336 72.3522V76.7326H476.748C482.259 76.7326 486.849 80.6065 487.897 85.7592C488.026 86.3909 488.371 86.9592 488.874 87.3677C489.378 87.7761 490.009 87.9995 490.659 88H695.013C696.356 88 697.507 87.0632 697.775 85.7592C698.296 83.2117 699.691 80.9211 701.723 79.2758C703.755 77.6306 706.3 76.732 708.925 76.7326H713.336V72.3648C713.234 72.3775 713.145 72.3775 713.042 72.3775C712.103 72.3775 711.202 72.008 710.538 71.3504C709.874 70.6927 709.5 69.8007 709.5 68.8707C709.5 67.9406 709.874 67.0486 710.538 66.391C711.202 65.7333 712.103 65.3638 713.042 65.3638C713.145 65.3638 713.234 65.3765 713.336 65.3765V62.4267C713.234 62.4394 713.145 62.4394 713.042 62.4394C712.103 62.4394 711.202 62.0699 710.538 61.4122C709.874 60.7546 709.5 59.8626 709.5 58.9325C709.5 58.0025 709.874 57.1105 710.538 56.4528C711.202 55.7952 712.103 55.4257 713.042 55.4257C713.145 55.4257 713.234 55.4384 713.336 55.4384V52.4886C713.234 52.5012 713.145 52.5012 713.042 52.5012C712.103 52.5012 711.202 52.1318 710.538 51.4741C709.874 50.8164 709.5 49.9245 709.5 48.9944C709.5 48.0643 709.874 47.1723 710.538 46.5147C711.202 45.857 712.103 45.4876 713.042 45.4876C713.145 45.4876 713.234 45.5002 713.336 45.5002V42.5504C713.234 42.5631 713.145 42.5631 713.042 42.5631C712.103 42.5631 711.202 42.1936 710.538 41.536C709.874 40.8783 709.5 39.9863 709.5 39.0563C709.5 38.1262 709.874 37.2342 710.538 36.5765C711.202 35.9189 712.103 35.5494 713.042 35.5494C713.145 35.5494 713.234 35.5621 713.336 35.5621V32.6123C713.234 32.6249 713.145 32.6249 713.042 32.6249C712.103 32.6249 711.202 32.2555 710.538 31.5978C709.874 30.9402 709.5 30.0482 709.5 29.1181C709.5 28.188 709.874 27.2961 710.538 26.6384C711.202 25.9807 712.103 25.6113 713.042 25.6113C713.145 25.6113 713.234 25.6239 713.336 25.6239V22.6741C713.234 22.6868 713.145 22.6868 713.042 22.6868C712.103 22.6868 711.202 22.3173 710.538 21.6597C709.874 21.002 709.5 20.11 709.5 19.18C709.5 17.205 711.086 15.6352 713.042 15.6352Z" fill="url(#paint2_linear_126_20469)"/>
<path d="M681.07 76.2667H503.201C496.994 76.2667 491.953 73.3657 491.953 69.7931V18.207C491.953 14.6345 496.994 11.7334 503.201 11.7334H681.07C687.278 11.7334 692.319 14.6345 692.319 18.207V69.7931C692.319 73.3657 687.278 76.2667 681.07 76.2667Z" stroke="#F1F5F9" stroke-opacity="0.8" stroke-miterlimit="10"/>
<path d="M503.162 12H682.501V76H503.162V12Z" stroke="#F1F5F9" stroke-opacity="0.34" stroke-miterlimit="10"/>
<path d="M518.937 33.946V29.452H521.779V34.548C521.779 35.6307 521.494 36.5127 520.925 37.194C520.365 37.8753 519.567 38.3747 518.531 38.692C517.504 39 516.286 39.154 514.877 39.154C513.477 39.154 512.259 39 511.223 38.692C510.187 38.3747 509.384 37.8753 508.815 37.194C508.255 36.5127 507.975 35.6307 507.975 34.548V29.452H510.817V33.946C510.817 34.6273 510.957 35.1733 511.237 35.584C511.526 35.9853 511.969 36.2793 512.567 36.466C513.173 36.6433 513.943 36.732 514.877 36.732C515.829 36.732 516.599 36.6433 517.187 36.466C517.784 36.2793 518.223 35.9853 518.503 35.584C518.792 35.1733 518.937 34.6273 518.937 33.946ZM534.536 35.038V39H531.89V35.486C531.89 35.122 531.806 34.8233 531.638 34.59C531.479 34.3473 531.236 34.17 530.91 34.058C530.583 33.9367 530.177 33.876 529.692 33.876C528.861 33.876 527.909 34.002 526.836 34.254C525.772 34.506 524.61 34.842 523.35 35.262V33.778C523.77 33.554 524.246 33.3207 524.778 33.078C525.31 32.826 525.888 32.5973 526.514 32.392C527.139 32.1773 527.792 32.0047 528.474 31.874C529.155 31.7433 529.846 31.678 530.546 31.678C531.404 31.678 532.128 31.7947 532.716 32.028C533.313 32.252 533.766 32.6113 534.074 33.106C534.382 33.5913 534.536 34.2353 534.536 35.038ZM523.154 39V31.86H525.478L525.8 33.582V39H523.154ZM545.781 32.322L545.767 34.254C545.337 34.1887 544.829 34.128 544.241 34.072C543.653 34.0067 543.041 33.9553 542.407 33.918C541.781 33.8713 541.189 33.848 540.629 33.848C540.097 33.848 539.653 33.904 539.299 34.016C538.944 34.1187 538.678 34.2867 538.501 34.52C538.323 34.7533 538.235 35.066 538.235 35.458C538.235 35.9993 538.403 36.3867 538.739 36.62C539.075 36.844 539.639 36.956 540.433 36.956C541.058 36.956 541.721 36.8953 542.421 36.774C543.13 36.6433 543.863 36.466 544.619 36.242C545.384 36.0087 546.159 35.7473 546.943 35.458V36.802C546.532 37.026 546.07 37.2733 545.557 37.544C545.043 37.8147 544.488 38.0713 543.891 38.314C543.293 38.5567 542.668 38.7573 542.015 38.916C541.371 39.0653 540.703 39.14 540.013 39.14C539.089 39.14 538.295 39.028 537.633 38.804C536.979 38.5707 536.475 38.188 536.121 37.656C535.766 37.1147 535.589 36.396 535.589 35.5C535.589 34.5573 535.803 33.8107 536.233 33.26C536.671 32.7093 537.283 32.3173 538.067 32.084C538.851 31.8413 539.761 31.72 540.797 31.72C541.795 31.72 542.71 31.79 543.541 31.93C544.381 32.0607 545.127 32.1913 545.781 32.322ZM544.451 28.5H547.097V39H544.773L544.451 37.292V28.5ZM554.393 37.11C555.102 37.11 555.746 37.0913 556.325 37.054C556.904 37.0073 557.408 36.956 557.837 36.9C558.276 36.8347 558.635 36.7833 558.915 36.746L559.447 38.65C559.008 38.7527 558.49 38.846 557.893 38.93C557.305 39.014 556.684 39.0793 556.031 39.126C555.387 39.1727 554.762 39.196 554.155 39.196C552.802 39.196 551.696 39.0653 550.837 38.804C549.978 38.5427 549.344 38.1367 548.933 37.586C548.532 37.026 548.331 36.3073 548.331 35.43C548.331 34.5433 548.546 33.8247 548.975 33.274C549.414 32.7233 550.053 32.322 550.893 32.07C551.733 31.8087 552.764 31.678 553.987 31.678C554.836 31.678 555.606 31.7387 556.297 31.86C556.988 31.972 557.58 32.154 558.075 32.406C558.57 32.658 558.948 32.9893 559.209 33.4C559.48 33.8107 559.615 34.3053 559.615 34.884C559.615 34.996 559.61 35.1313 559.601 35.29C559.592 35.4487 559.582 35.598 559.573 35.738C559.564 35.8687 559.554 35.9667 559.545 36.032H549.759V34.66H557.333L557.039 35.15C557.039 34.7487 556.96 34.422 556.801 34.17C556.642 33.918 556.339 33.736 555.891 33.624C555.443 33.5027 554.776 33.442 553.889 33.442C553.105 33.442 552.489 33.5027 552.041 33.624C551.602 33.736 551.294 33.9273 551.117 34.198C550.949 34.4687 550.865 34.842 550.865 35.318C550.865 35.6913 550.916 35.9993 551.019 36.242C551.122 36.4753 551.304 36.6573 551.565 36.788C551.826 36.9093 552.186 36.9933 552.643 37.04C553.1 37.0867 553.684 37.11 554.393 37.11ZM560.847 39V31.86H563.171L563.493 33.778V39H560.847ZM568.631 31.678V34.058C567.894 34.058 567.213 34.0907 566.587 34.156C565.971 34.2213 565.369 34.3333 564.781 34.492C564.203 34.6413 563.61 34.8373 563.003 35.08C562.406 35.3133 561.753 35.6027 561.043 35.948V34.562C561.426 34.2727 561.879 33.9647 562.401 33.638C562.933 33.302 563.526 32.9847 564.179 32.686C564.833 32.3873 565.533 32.1447 566.279 31.958C567.035 31.7713 567.819 31.678 568.631 31.678ZM580.786 32.182L579.652 34.198C579.204 34.142 578.677 34.0907 578.07 34.044C577.464 33.988 576.834 33.9413 576.18 33.904C575.527 33.8667 574.906 33.848 574.318 33.848C573.768 33.848 573.306 33.89 572.932 33.974C572.568 34.058 572.293 34.198 572.106 34.394C571.92 34.5807 571.826 34.8327 571.826 35.15C571.826 35.5887 571.985 35.9107 572.302 36.116C572.62 36.312 573.161 36.41 573.926 36.41C574.561 36.41 575.247 36.3773 575.984 36.312C576.722 36.2467 577.482 36.13 578.266 35.962C579.06 35.794 579.848 35.5653 580.632 35.276V36.718C580.128 37.0073 579.512 37.2827 578.784 37.544C578.056 37.8053 577.258 38.02 576.39 38.188C575.532 38.356 574.645 38.44 573.73 38.44C572.75 38.44 571.92 38.3327 571.238 38.118C570.566 37.9033 570.053 37.5533 569.698 37.068C569.353 36.5827 569.18 35.9433 569.18 35.15C569.18 34.282 569.404 33.6007 569.852 33.106C570.3 32.602 570.935 32.2473 571.756 32.042C572.587 31.8273 573.562 31.72 574.682 31.72C575.914 31.72 577.039 31.7713 578.056 31.874C579.083 31.9673 579.993 32.07 580.786 32.182ZM580.786 32.196V37.726C580.786 38.6687 580.567 39.434 580.128 40.022C579.69 40.61 579.018 41.0393 578.112 41.31C577.216 41.59 576.064 41.73 574.654 41.73C574.085 41.73 573.506 41.702 572.918 41.646C572.33 41.5993 571.756 41.5247 571.196 41.422C570.646 41.3287 570.118 41.212 569.614 41.072L570.16 39.112C570.926 39.308 571.696 39.4527 572.47 39.546C573.245 39.6393 574.029 39.686 574.822 39.686C575.756 39.686 576.474 39.6067 576.978 39.448C577.492 39.2893 577.842 39.0607 578.028 38.762C578.224 38.454 578.304 38.0807 578.266 37.642L578.14 37.362V32.392L580.786 32.196ZM582.134 39V31.86H584.458L584.78 33.778V39H582.134ZM589.918 31.678V34.058C589.181 34.058 588.5 34.0907 587.874 34.156C587.258 34.2213 586.656 34.3333 586.068 34.492C585.49 34.6413 584.897 34.8373 584.29 35.08C583.693 35.3133 583.04 35.6027 582.33 35.948V34.562C582.713 34.2727 583.166 33.9647 583.688 33.638C584.22 33.302 584.813 32.9847 585.466 32.686C586.12 32.3873 586.82 32.1447 587.566 31.958C588.322 31.7713 589.106 31.678 589.918 31.678ZM599.33 32.392L601.976 32.196V39H599.652L599.33 37.39V32.392ZM601.976 32.182L600.842 34.198C600.412 34.142 599.899 34.0907 599.302 34.044C598.704 33.988 598.084 33.9413 597.44 33.904C596.796 33.8667 596.184 33.848 595.606 33.848C595.055 33.848 594.593 33.904 594.22 34.016C593.856 34.1187 593.58 34.282 593.394 34.506C593.207 34.73 593.114 35.0287 593.114 35.402C593.114 35.9713 593.272 36.3727 593.59 36.606C593.907 36.8393 594.448 36.956 595.214 36.956C595.839 36.956 596.506 36.8907 597.216 36.76C597.934 36.6293 598.681 36.4473 599.456 36.214C600.23 35.9807 601.019 35.7147 601.822 35.416V36.858C601.402 37.1007 600.926 37.3573 600.394 37.628C599.871 37.8893 599.302 38.1367 598.686 38.37C598.079 38.594 597.44 38.7807 596.768 38.93C596.096 39.07 595.405 39.14 594.696 39.14C593.856 39.14 593.114 39.0233 592.47 38.79C591.835 38.5473 591.34 38.16 590.986 37.628C590.64 37.0867 590.468 36.3773 590.468 35.5C590.468 34.5387 590.692 33.7873 591.14 33.246C591.597 32.6953 592.232 32.3033 593.044 32.07C593.856 31.8367 594.798 31.72 595.872 31.72C597.104 31.72 598.228 31.7713 599.246 31.874C600.272 31.9673 601.182 32.07 601.976 32.182ZM613.306 32.322L613.292 34.254C612.863 34.1887 612.354 34.128 611.766 34.072C611.178 34.0067 610.567 33.9553 609.932 33.918C609.307 33.8713 608.714 33.848 608.154 33.848C607.622 33.848 607.179 33.904 606.824 34.016C606.469 34.1187 606.203 34.2867 606.026 34.52C605.849 34.7533 605.76 35.066 605.76 35.458C605.76 35.9993 605.928 36.3867 606.264 36.62C606.6 36.844 607.165 36.956 607.958 36.956C608.583 36.956 609.246 36.8953 609.946 36.774C610.655 36.6433 611.388 36.466 612.144 36.242C612.909 36.0087 613.684 35.7473 614.468 35.458V36.802C614.057 37.026 613.595 37.2733 613.082 37.544C612.569 37.8147 612.013 38.0713 611.416 38.314C610.819 38.5567 610.193 38.7573 609.54 38.916C608.896 39.0653 608.229 39.14 607.538 39.14C606.614 39.14 605.821 39.028 605.158 38.804C604.505 38.5707 604.001 38.188 603.646 37.656C603.291 37.1147 603.114 36.396 603.114 35.5C603.114 34.5573 603.329 33.8107 603.758 33.26C604.197 32.7093 604.808 32.3173 605.592 32.084C606.376 31.8413 607.286 31.72 608.322 31.72C609.321 31.72 610.235 31.79 611.066 31.93C611.906 32.0607 612.653 32.1913 613.306 32.322ZM611.976 28.5H614.622V39H612.298L611.976 37.292V28.5ZM615.968 35.836V31.86H618.6V35.388C618.6 35.7427 618.684 36.0413 618.852 36.284C619.02 36.5267 619.272 36.7087 619.608 36.83C619.944 36.942 620.36 36.998 620.854 36.998C621.396 36.998 621.993 36.942 622.646 36.83C623.309 36.7087 624.018 36.5453 624.774 36.34C625.54 36.1253 626.342 35.8733 627.182 35.584V37.082C626.772 37.2967 626.296 37.53 625.754 37.782C625.213 38.034 624.63 38.2673 624.004 38.482C623.379 38.6873 622.726 38.86 622.044 39C621.372 39.1307 620.686 39.196 619.986 39.196C619.128 39.196 618.395 39.084 617.788 38.86C617.191 38.6267 616.738 38.2627 616.43 37.768C616.122 37.2733 615.968 36.6293 615.968 35.836ZM627.378 31.86V39H625.068L624.746 37.292V31.86H627.378ZM637.378 32.392L640.024 32.196V39H637.7L637.378 37.39V32.392ZM640.024 32.182L638.89 34.198C638.461 34.142 637.948 34.0907 637.35 34.044C636.753 33.988 636.132 33.9413 635.488 33.904C634.844 33.8667 634.233 33.848 633.654 33.848C633.104 33.848 632.642 33.904 632.268 34.016C631.904 34.1187 631.629 34.282 631.442 34.506C631.256 34.73 631.162 35.0287 631.162 35.402C631.162 35.9713 631.321 36.3727 631.638 36.606C631.956 36.8393 632.497 36.956 633.262 36.956C633.888 36.956 634.555 36.8907 635.264 36.76C635.983 36.6293 636.73 36.4473 637.504 36.214C638.279 35.9807 639.068 35.7147 639.87 35.416V36.858C639.45 37.1007 638.974 37.3573 638.442 37.628C637.92 37.8893 637.35 38.1367 636.734 38.37C636.128 38.594 635.488 38.7807 634.816 38.93C634.144 39.07 633.454 39.14 632.744 39.14C631.904 39.14 631.162 39.0233 630.518 38.79C629.884 38.5473 629.389 38.16 629.034 37.628C628.689 37.0867 628.516 36.3773 628.516 35.5C628.516 34.5387 628.74 33.7873 629.188 33.246C629.646 32.6953 630.28 32.3033 631.092 32.07C631.904 31.8367 632.847 31.72 633.92 31.72C635.152 31.72 636.277 31.7713 637.294 31.874C638.321 31.9673 639.231 32.07 640.024 32.182ZM650.667 33.988H640.909V31.86H650.667V33.988ZM642.435 35.64V32.154L642.967 30.012H645.095V35.36C645.095 35.7707 645.16 36.0927 645.291 36.326C645.421 36.5593 645.645 36.7227 645.963 36.816C646.289 36.9093 646.728 36.956 647.279 36.956C647.96 36.956 648.576 36.914 649.127 36.83C649.677 36.746 650.214 36.6527 650.737 36.55L651.241 38.65C650.671 38.79 650.023 38.916 649.295 39.028C648.567 39.14 647.815 39.196 647.041 39.196C646.033 39.196 645.188 39.084 644.507 38.86C643.825 38.6267 643.307 38.2487 642.953 37.726C642.607 37.2033 642.435 36.508 642.435 35.64ZM657.93 37.11C658.639 37.11 659.283 37.0913 659.862 37.054C660.441 37.0073 660.945 36.956 661.374 36.9C661.813 36.8347 662.172 36.7833 662.452 36.746L662.984 38.65C662.545 38.7527 662.027 38.846 661.43 38.93C660.842 39.014 660.221 39.0793 659.568 39.126C658.924 39.1727 658.299 39.196 657.692 39.196C656.339 39.196 655.233 39.0653 654.374 38.804C653.515 38.5427 652.881 38.1367 652.47 37.586C652.069 37.026 651.868 36.3073 651.868 35.43C651.868 34.5433 652.083 33.8247 652.512 33.274C652.951 32.7233 653.59 32.322 654.43 32.07C655.27 31.8087 656.301 31.678 657.524 31.678C658.373 31.678 659.143 31.7387 659.834 31.86C660.525 31.972 661.117 32.154 661.612 32.406C662.107 32.658 662.485 32.9893 662.746 33.4C663.017 33.8107 663.152 34.3053 663.152 34.884C663.152 34.996 663.147 35.1313 663.138 35.29C663.129 35.4487 663.119 35.598 663.11 35.738C663.101 35.8687 663.091 35.9667 663.082 36.032H653.296V34.66H660.87L660.576 35.15C660.576 34.7487 660.497 34.422 660.338 34.17C660.179 33.918 659.876 33.736 659.428 33.624C658.98 33.5027 658.313 33.442 657.426 33.442C656.642 33.442 656.026 33.5027 655.578 33.624C655.139 33.736 654.831 33.9273 654.654 34.198C654.486 34.4687 654.402 34.842 654.402 35.318C654.402 35.6913 654.453 35.9993 654.556 36.242C654.659 36.4753 654.841 36.6573 655.102 36.788C655.363 36.9093 655.723 36.9933 656.18 37.04C656.637 37.0867 657.221 37.11 657.93 37.11ZM674.8 36.97C674.8 37.558 674.618 38.0153 674.254 38.342C673.89 38.6593 673.335 38.8787 672.588 39C671.851 39.1307 670.894 39.196 669.718 39.196C669 39.196 668.29 39.1633 667.59 39.098C666.89 39.0327 666.251 38.9533 665.672 38.86C665.103 38.7667 664.627 38.6733 664.244 38.58L664.692 36.872C665.112 36.956 665.612 37.0447 666.19 37.138C666.778 37.222 667.413 37.292 668.094 37.348C668.776 37.404 669.476 37.432 670.194 37.432C670.745 37.432 671.174 37.4227 671.482 37.404C671.8 37.376 672.019 37.3293 672.14 37.264C672.271 37.1893 672.336 37.0867 672.336 36.956C672.336 36.816 672.285 36.7133 672.182 36.648C672.089 36.5733 671.935 36.522 671.72 36.494C671.506 36.4567 671.221 36.4287 670.866 36.41L667.38 36.214C666.578 36.1767 665.934 36.074 665.448 35.906C664.972 35.7287 664.627 35.4767 664.412 35.15C664.207 34.8233 664.104 34.3987 664.104 33.876C664.104 33.2693 664.31 32.8073 664.72 32.49C665.131 32.1727 665.728 31.9533 666.512 31.832C667.306 31.7107 668.276 31.65 669.424 31.65C669.844 31.65 670.278 31.6687 670.726 31.706C671.184 31.734 671.636 31.7713 672.084 31.818C672.542 31.8647 672.962 31.916 673.344 31.972C673.736 32.0187 674.072 32.0653 674.352 32.112L673.96 33.834C673.475 33.7407 672.943 33.6613 672.364 33.596C671.795 33.5307 671.207 33.4793 670.6 33.442C670.003 33.3953 669.406 33.372 668.808 33.372C668.23 33.372 667.777 33.386 667.45 33.414C667.124 33.442 666.895 33.4887 666.764 33.554C666.634 33.6193 666.568 33.7173 666.568 33.848C666.568 33.9787 666.606 34.0767 666.68 34.142C666.764 34.2073 666.886 34.254 667.044 34.282C667.212 34.31 667.418 34.3287 667.66 34.338L671.146 34.548C671.949 34.5947 672.621 34.702 673.162 34.87C673.704 35.0287 674.11 35.276 674.38 35.612C674.66 35.948 674.8 36.4007 674.8 36.97ZM534.744 65H531.804L535.004 51.96H537.944L534.744 65ZM543.224 65H540.284L543.484 51.96H546.424L543.224 65ZM530.404 54.7H549.684L549.144 56.92H529.864L530.404 54.7ZM529.104 60.02H548.384L547.844 62.24H528.564L529.104 60.02ZM560.155 65H556.095V57.66C556.095 57.2467 556.102 56.8267 556.115 56.4C556.142 55.9733 556.162 55.5867 556.175 55.24C556.202 54.88 556.228 54.5933 556.255 54.38C556.282 54.1667 556.295 54.06 556.295 54.06L556.375 51.36H560.155V65ZM557.415 54.94L551.155 56.82V53.36L556.375 51.36L557.415 54.94ZM564.024 56.46L575.464 56.6C576.89 56.6133 578.07 56.7467 579.004 57C579.95 57.24 580.657 57.6533 581.124 58.24C581.604 58.8267 581.844 59.6467 581.844 60.7C581.844 61.5267 581.69 62.2333 581.384 62.82C581.077 63.3933 580.557 63.86 579.824 64.22C579.09 64.58 578.104 64.8467 576.864 65.02C575.624 65.1933 574.07 65.28 572.204 65.28C571.297 65.28 570.41 65.26 569.544 65.22C568.69 65.18 567.857 65.1267 567.044 65.06C566.23 64.9933 565.444 64.9133 564.684 64.82C563.924 64.7133 563.197 64.5933 562.504 64.46L563.204 61.36C564.444 61.5733 565.897 61.7467 567.564 61.88C569.244 62.0133 570.977 62.08 572.764 62.08C573.83 62.08 574.697 62.06 575.364 62.02C576.044 61.98 576.57 61.9067 576.944 61.8C577.317 61.6933 577.57 61.5533 577.704 61.38C577.85 61.2067 577.924 60.9933 577.924 60.74C577.924 60.3933 577.824 60.1333 577.624 59.96C577.437 59.7733 577.124 59.64 576.684 59.56C576.257 59.48 575.677 59.44 574.944 59.44L563.444 59.3L563.224 59.08L564.684 51.36H568.384L566.964 58.86L564.024 56.46ZM580.884 54.54H565.664V51.36H580.884V54.54ZM583.263 67.76L583.523 65.9C583.697 65.9133 583.857 65.9267 584.003 65.94C584.163 65.9667 584.31 65.98 584.443 65.98C584.79 65.98 585.017 65.9333 585.123 65.84C585.243 65.76 585.303 65.5933 585.303 65.34V65H583.583V61H587.503V65.44C587.503 66.2133 587.27 66.82 586.803 67.26C586.337 67.7 585.603 67.92 584.603 67.92C584.137 67.92 583.69 67.8667 583.263 67.76ZM611.407 58.18C611.407 59.4067 611.18 60.4733 610.727 61.38C610.274 62.2733 609.587 63.0067 608.667 63.58C607.76 64.1533 606.607 64.58 605.207 64.86C603.82 65.14 602.194 65.28 600.327 65.28C598.447 65.28 596.807 65.14 595.407 64.86C594.02 64.58 592.867 64.1533 591.947 63.58C591.04 63.0067 590.36 62.2733 589.907 61.38C589.454 60.4733 589.227 59.4067 589.227 58.18C589.227 56.94 589.454 55.8733 589.907 54.98C590.36 54.0867 591.04 53.3533 591.947 52.78C592.867 52.2067 594.02 51.78 595.407 51.5C596.807 51.22 598.447 51.08 600.327 51.08C602.194 51.08 603.82 51.22 605.207 51.5C606.607 51.78 607.76 52.2067 608.667 52.78C609.587 53.3533 610.274 54.0867 610.727 54.98C611.18 55.8733 611.407 56.94 611.407 58.18ZM607.347 58.18C607.347 57.26 607.107 56.54 606.627 56.02C606.16 55.4867 605.414 55.1133 604.387 54.9C603.36 54.6733 602.007 54.56 600.327 54.56C598.647 54.56 597.287 54.6733 596.247 54.9C595.22 55.1133 594.467 55.4867 593.987 56.02C593.52 56.54 593.287 57.26 593.287 58.18C593.287 59.1 593.52 59.8267 593.987 60.36C594.467 60.88 595.22 61.2533 596.247 61.48C597.287 61.6933 598.647 61.8 600.327 61.8C602.007 61.8 603.36 61.6933 604.387 61.48C605.414 61.2533 606.16 60.88 606.627 60.36C607.107 59.8267 607.347 59.1 607.347 58.18ZM635.274 58.18C635.274 59.4067 635.048 60.4733 634.594 61.38C634.141 62.2733 633.454 63.0067 632.534 63.58C631.628 64.1533 630.474 64.58 629.074 64.86C627.688 65.14 626.061 65.28 624.194 65.28C622.314 65.28 620.674 65.14 619.274 64.86C617.888 64.58 616.734 64.1533 615.814 63.58C614.908 63.0067 614.228 62.2733 613.774 61.38C613.321 60.4733 613.094 59.4067 613.094 58.18C613.094 56.94 613.321 55.8733 613.774 54.98C614.228 54.0867 614.908 53.3533 615.814 52.78C616.734 52.2067 617.888 51.78 619.274 51.5C620.674 51.22 622.314 51.08 624.194 51.08C626.061 51.08 627.688 51.22 629.074 51.5C630.474 51.78 631.628 52.2067 632.534 52.78C633.454 53.3533 634.141 54.0867 634.594 54.98C635.048 55.8733 635.274 56.94 635.274 58.18ZM631.214 58.18C631.214 57.26 630.974 56.54 630.494 56.02C630.028 55.4867 629.281 55.1133 628.254 54.9C627.228 54.6733 625.874 54.56 624.194 54.56C622.514 54.56 621.154 54.6733 620.114 54.9C619.088 55.1133 618.334 55.4867 617.854 56.02C617.388 56.54 617.154 57.26 617.154 58.18C617.154 59.1 617.388 59.8267 617.854 60.36C618.334 60.88 619.088 61.2533 620.114 61.48C621.154 61.6933 622.514 61.8 624.194 61.8C625.874 61.8 627.228 61.6933 628.254 61.48C629.281 61.2533 630.028 60.88 630.494 60.36C630.974 59.8267 631.214 59.1 631.214 58.18ZM659.141 58.18C659.141 59.4067 658.915 60.4733 658.461 61.38C658.008 62.2733 657.321 63.0067 656.401 63.58C655.495 64.1533 654.341 64.58 652.941 64.86C651.555 65.14 649.928 65.28 648.061 65.28C646.181 65.28 644.541 65.14 643.141 64.86C641.755 64.58 640.601 64.1533 639.681 63.58C638.775 63.0067 638.095 62.2733 637.641 61.38C637.188 60.4733 636.961 59.4067 636.961 58.18C636.961 56.94 637.188 55.8733 637.641 54.98C638.095 54.0867 638.775 53.3533 639.681 52.78C640.601 52.2067 641.755 51.78 643.141 51.5C644.541 51.22 646.181 51.08 648.061 51.08C649.928 51.08 651.555 51.22 652.941 51.5C654.341 51.78 655.495 52.2067 656.401 52.78C657.321 53.3533 658.008 54.0867 658.461 54.98C658.915 55.8733 659.141 56.94 659.141 58.18ZM655.081 58.18C655.081 57.26 654.841 56.54 654.361 56.02C653.895 55.4867 653.148 55.1133 652.121 54.9C651.095 54.6733 649.741 54.56 648.061 54.56C646.381 54.56 645.021 54.6733 643.981 54.9C642.955 55.1133 642.201 55.4867 641.721 56.02C641.255 56.54 641.021 57.26 641.021 58.18C641.021 59.1 641.255 59.8267 641.721 60.36C642.201 60.88 642.955 61.2533 643.981 61.48C645.021 61.6933 646.381 61.8 648.061 61.8C649.741 61.8 651.095 61.6933 652.121 61.48C653.148 61.2533 653.895 60.88 654.361 60.36C654.841 59.8267 655.081 59.1 655.081 58.18Z" fill="white"/>
<path d="M949.085 15.6352C949.172 15.6352 949.249 15.6478 949.336 15.6478V11.2674H945.566C940.855 11.2674 936.931 7.39347 936.035 2.24083C935.925 1.60909 935.63 1.04078 935.2 0.632343C934.77 0.223904 934.231 0.000486929 933.674 0H758.998C757.851 0 756.867 0.936844 756.638 2.24083C756.192 4.78829 755 7.07893 753.263 8.72418C751.526 10.3694 749.351 11.268 747.107 11.2674H743.336V15.6478C743.424 15.6352 743.5 15.6352 743.588 15.6352C744.391 15.6352 745.161 16.0046 745.728 16.6623C746.296 17.3199 746.615 18.2119 746.615 19.142C746.615 20.0721 746.296 20.964 745.728 21.6217C745.161 22.2794 744.391 22.6488 743.588 22.6488C743.5 22.6488 743.424 22.6362 743.336 22.6362V25.586C743.424 25.5733 743.5 25.5733 743.588 25.5733C744.391 25.5733 745.161 25.9428 745.728 26.6004C746.296 27.2581 746.615 28.1501 746.615 29.0801C746.615 30.0102 746.296 30.9022 745.728 31.5598C745.161 32.2175 744.391 32.587 743.588 32.587C743.5 32.587 743.424 32.5743 743.336 32.5743V35.5241C743.424 35.5114 743.5 35.5114 743.588 35.5114C745.26 35.5241 746.615 37.0939 746.615 39.0309C746.615 39.4915 746.537 39.9475 746.385 40.3729C746.233 40.7984 746.01 41.185 745.728 41.5106C745.447 41.8363 745.114 42.0946 744.746 42.2708C744.379 42.4471 743.985 42.5378 743.588 42.5378C743.5 42.5378 743.424 42.5251 743.336 42.5251V45.4749C743.424 45.4622 743.5 45.4622 743.588 45.4622C745.26 45.4622 746.615 47.0447 746.615 48.9817C746.615 50.9187 745.26 52.4886 743.588 52.4886C743.5 52.4886 743.424 52.4759 743.336 52.4759V55.4257C743.424 55.413 743.5 55.413 743.588 55.413C744.391 55.413 745.161 55.7825 745.728 56.4402C746.296 57.0978 746.615 57.9898 746.615 58.9199C746.615 59.8499 746.296 60.7419 745.728 61.3996C745.161 62.0572 744.391 62.4267 743.588 62.4267C743.5 62.4267 743.424 62.414 743.336 62.414V65.3638C743.424 65.3512 743.5 65.3512 743.588 65.3512C744.391 65.3512 745.161 65.7206 745.728 66.3783C746.296 67.036 746.615 67.9279 746.615 68.858C746.615 69.7881 746.296 70.6801 745.728 71.3377C745.161 71.9954 744.391 72.3648 743.588 72.3648C743.5 72.3648 743.424 72.3522 743.336 72.3522V76.7326H747.107C751.818 76.7326 755.741 80.6065 756.638 85.7592C756.747 86.3909 757.042 86.9592 757.473 87.3677C757.903 87.7761 758.442 87.9995 758.998 88H933.674C934.822 88 935.806 87.0632 936.035 85.7592C936.48 83.2117 937.673 80.9211 939.41 79.2758C941.147 77.6306 943.322 76.732 945.566 76.7326H949.336V72.3648C949.249 72.3775 949.172 72.3775 949.085 72.3775C948.282 72.3775 947.512 72.008 946.944 71.3504C946.376 70.6927 946.057 69.8007 946.057 68.8707C946.057 67.9406 946.376 67.0486 946.944 66.391C947.512 65.7333 948.282 65.3638 949.085 65.3638C949.172 65.3638 949.249 65.3765 949.336 65.3765V62.4267C949.249 62.4394 949.172 62.4394 949.085 62.4394C948.282 62.4394 947.512 62.0699 946.944 61.4122C946.376 60.7546 946.057 59.8626 946.057 58.9325C946.057 58.0025 946.376 57.1105 946.944 56.4528C947.512 55.7952 948.282 55.4257 949.085 55.4257C949.172 55.4257 949.249 55.4384 949.336 55.4384V52.4886C949.249 52.5012 949.172 52.5012 949.085 52.5012C948.282 52.5012 947.512 52.1318 946.944 51.4741C946.376 50.8164 946.057 49.9245 946.057 48.9944C946.057 48.0643 946.376 47.1723 946.944 46.5147C947.512 45.857 948.282 45.4876 949.085 45.4876C949.172 45.4876 949.249 45.5002 949.336 45.5002V42.5504C949.249 42.5631 949.172 42.5631 949.085 42.5631C948.282 42.5631 947.512 42.1936 946.944 41.536C946.376 40.8783 946.057 39.9863 946.057 39.0563C946.057 38.1262 946.376 37.2342 946.944 36.5765C947.512 35.9189 948.282 35.5494 949.085 35.5494C949.172 35.5494 949.249 35.5621 949.336 35.5621V32.6123C949.249 32.6249 949.172 32.6249 949.085 32.6249C948.282 32.6249 947.512 32.2555 946.944 31.5978C946.376 30.9402 946.057 30.0482 946.057 29.1181C946.057 28.188 946.376 27.2961 946.944 26.6384C947.512 25.9807 948.282 25.6113 949.085 25.6113C949.172 25.6113 949.249 25.6239 949.336 25.6239V22.6741C949.249 22.6868 949.172 22.6868 949.085 22.6868C948.282 22.6868 947.512 22.3173 946.944 21.6597C946.376 21.002 946.057 20.11 946.057 19.18C946.057 17.205 947.413 15.6352 949.085 15.6352Z" fill="url(#paint3_linear_126_20469)"/>
<path d="M921.756 76.2667H769.719C764.413 76.2667 760.104 73.3657 760.104 69.7931V18.207C760.104 14.6345 764.413 11.7334 769.719 11.7334H921.756C927.062 11.7334 931.371 14.6345 931.371 18.207V69.7931C931.371 73.3657 927.062 76.2667 921.756 76.2667Z" stroke="#F1F5F9" stroke-opacity="0.8" stroke-miterlimit="10"/>
<path d="M769.685 12H922.979V76H769.685V12Z" stroke="#F1F5F9" stroke-opacity="0.34" stroke-miterlimit="10"/>
<path d="M820.859 36.888H809.291V34.632H820.859V36.888ZM816.139 28.088L816.075 28.632L809.595 39H805.691L812.795 28.088H816.139ZM820.299 39L813.819 28.632L813.787 28.088H817.131L824.235 39H820.299ZM835.747 31.368L835.731 33.576C835.24 33.5013 834.659 33.432 833.987 33.368C833.315 33.2933 832.616 33.2347 831.891 33.192C831.176 33.1387 830.499 33.112 829.859 33.112C829.251 33.112 828.744 33.176 828.339 33.304C827.934 33.4213 827.63 33.6133 827.427 33.88C827.224 34.1467 827.123 34.504 827.123 34.952C827.123 35.5707 827.315 36.0133 827.699 36.28C828.083 36.536 828.728 36.664 829.635 36.664C830.35 36.664 831.107 36.5947 831.907 36.456C832.718 36.3067 833.555 36.104 834.419 35.848C835.294 35.5813 836.179 35.2827 837.075 34.952V36.488C836.606 36.744 836.078 37.0267 835.491 37.336C834.904 37.6453 834.27 37.9387 833.587 38.216C832.904 38.4933 832.19 38.7227 831.443 38.904C830.707 39.0747 829.944 39.16 829.155 39.16C828.099 39.16 827.192 39.032 826.435 38.776C825.688 38.5093 825.112 38.072 824.707 37.464C824.302 36.8453 824.099 36.024 824.099 35C824.099 33.9227 824.344 33.0693 824.835 32.44C825.336 31.8107 826.035 31.3627 826.931 31.096C827.827 30.8187 828.867 30.68 830.051 30.68C831.192 30.68 832.238 30.76 833.187 30.92C834.147 31.0693 835 31.2187 835.747 31.368ZM834.227 27H837.251V39H834.595L834.227 37.048V27ZM838.79 35.384V30.84H841.798V34.872C841.798 35.2773 841.894 35.6187 842.086 35.896C842.278 36.1733 842.566 36.3813 842.95 36.52C843.334 36.648 843.808 36.712 844.374 36.712C844.992 36.712 845.675 36.648 846.422 36.52C847.179 36.3813 847.99 36.1947 848.854 35.96C849.728 35.7147 850.646 35.4267 851.606 35.096V36.808C851.136 37.0533 850.592 37.32 849.974 37.608C849.355 37.896 848.688 38.1627 847.974 38.408C847.259 38.6427 846.512 38.84 845.734 39C844.966 39.1493 844.182 39.224 843.382 39.224C842.4 39.224 841.563 39.096 840.87 38.84C840.187 38.5733 839.67 38.1573 839.318 37.592C838.966 37.0267 838.79 36.2907 838.79 35.384ZM851.83 30.84V39H849.19L848.822 37.048V30.84H851.83ZM856.474 27V39H853.45V27H856.474ZM868.632 33.272H857.48V30.84H868.632V33.272ZM859.224 35.16V31.176L859.832 28.728H862.264V34.84C862.264 35.3093 862.339 35.6773 862.488 35.944C862.638 36.2107 862.894 36.3973 863.256 36.504C863.63 36.6107 864.131 36.664 864.76 36.664C865.539 36.664 866.243 36.616 866.872 36.52C867.502 36.424 868.115 36.3173 868.712 36.2L869.288 38.6C868.638 38.76 867.896 38.904 867.064 39.032C866.232 39.16 865.374 39.224 864.488 39.224C863.336 39.224 862.371 39.096 861.592 38.84C860.814 38.5733 860.222 38.1413 859.816 37.544C859.422 36.9467 859.224 36.152 859.224 35.16ZM882.229 36.68C882.229 37.352 882.021 37.8747 881.605 38.248C881.189 38.6107 880.555 38.8613 879.701 39C878.859 39.1493 877.765 39.224 876.421 39.224C875.6 39.224 874.789 39.1867 873.989 39.112C873.189 39.0373 872.459 38.9467 871.797 38.84C871.147 38.7333 870.603 38.6267 870.165 38.52L870.677 36.568C871.157 36.664 871.728 36.7653 872.389 36.872C873.061 36.968 873.787 37.048 874.565 37.112C875.344 37.176 876.144 37.208 876.965 37.208C877.595 37.208 878.085 37.1973 878.437 37.176C878.8 37.144 879.051 37.0907 879.189 37.016C879.339 36.9307 879.413 36.8133 879.413 36.664C879.413 36.504 879.355 36.3867 879.237 36.312C879.131 36.2267 878.955 36.168 878.709 36.136C878.464 36.0933 878.139 36.0613 877.733 36.04L873.749 35.816C872.832 35.7733 872.096 35.656 871.541 35.464C870.997 35.2613 870.603 34.9733 870.357 34.6C870.123 34.2267 870.005 33.7413 870.005 33.144C870.005 32.4507 870.24 31.9227 870.709 31.56C871.179 31.1973 871.861 30.9467 872.757 30.808C873.664 30.6693 874.773 30.6 876.085 30.6C876.565 30.6 877.061 30.6213 877.573 30.664C878.096 30.696 878.613 30.7387 879.125 30.792C879.648 30.8453 880.128 30.904 880.565 30.968C881.013 31.0213 881.397 31.0747 881.717 31.128L881.269 33.096C880.715 32.9893 880.107 32.8987 879.445 32.824C878.795 32.7493 878.123 32.6907 877.429 32.648C876.747 32.5947 876.064 32.568 875.381 32.568C874.72 32.568 874.203 32.584 873.829 32.616C873.456 32.648 873.195 32.7013 873.045 32.776C872.896 32.8507 872.821 32.9627 872.821 33.112C872.821 33.2613 872.864 33.3733 872.949 33.448C873.045 33.5227 873.184 33.576 873.365 33.608C873.557 33.64 873.792 33.6613 874.069 33.672L878.053 33.912C878.971 33.9653 879.739 34.088 880.357 34.28C880.976 34.4613 881.44 34.744 881.749 35.128C882.069 35.512 882.229 36.0293 882.229 36.68ZM781.484 65H778.544L781.744 51.96H784.684L781.484 65ZM789.964 65H787.024L790.224 51.96H793.164L789.964 65ZM777.144 54.7H796.424L795.884 56.92H776.604L777.144 54.7ZM775.844 60.02H795.124L794.584 62.24H775.304L775.844 60.02ZM813.055 56.04C813.055 55.64 812.909 55.3333 812.615 55.12C812.335 54.9067 811.902 54.76 811.315 54.68C810.742 54.5867 810.002 54.54 809.095 54.54C807.949 54.54 806.762 54.6 805.535 54.72C804.309 54.8267 803.109 54.9667 801.935 55.14C800.775 55.3 799.702 55.48 798.715 55.68L798.035 52.28C799.075 52.04 800.182 51.8333 801.355 51.66C802.529 51.4867 803.715 51.3467 804.915 51.24C806.129 51.1333 807.282 51.08 808.375 51.08C810.375 51.08 812.015 51.2267 813.295 51.52C814.589 51.8 815.549 52.2533 816.175 52.88C816.802 53.5067 817.115 54.3333 817.115 55.36C817.115 56.28 816.902 57.04 816.475 57.64C816.062 58.2267 815.429 58.7267 814.575 59.14C813.722 59.5533 812.642 59.9333 811.335 60.28L802.715 62.9L802.695 62.1C803.215 62.0467 803.822 62 804.515 61.96C805.222 61.9067 805.962 61.86 806.735 61.82C807.509 61.7667 808.275 61.7267 809.035 61.7C809.809 61.6733 810.529 61.66 811.195 61.66H817.195V65H798.495V61.28L811.155 57.64C811.595 57.48 811.955 57.3333 812.235 57.2C812.515 57.0533 812.722 56.8933 812.855 56.72C812.989 56.5333 813.055 56.3067 813.055 56.04ZM841.116 58.18C841.116 59.4067 840.889 60.4733 840.436 61.38C839.983 62.2733 839.296 63.0067 838.376 63.58C837.469 64.1533 836.316 64.58 834.916 64.86C833.529 65.14 831.903 65.28 830.036 65.28C828.156 65.28 826.516 65.14 825.116 64.86C823.729 64.58 822.576 64.1533 821.656 63.58C820.749 63.0067 820.069 62.2733 819.616 61.38C819.163 60.4733 818.936 59.4067 818.936 58.18C818.936 56.94 819.163 55.8733 819.616 54.98C820.069 54.0867 820.749 53.3533 821.656 52.78C822.576 52.2067 823.729 51.78 825.116 51.5C826.516 51.22 828.156 51.08 830.036 51.08C831.903 51.08 833.529 51.22 834.916 51.5C836.316 51.78 837.469 52.2067 838.376 52.78C839.296 53.3533 839.983 54.0867 840.436 54.98C840.889 55.8733 841.116 56.94 841.116 58.18ZM837.056 58.18C837.056 57.26 836.816 56.54 836.336 56.02C835.869 55.4867 835.123 55.1133 834.096 54.9C833.069 54.6733 831.716 54.56 830.036 54.56C828.356 54.56 826.996 54.6733 825.956 54.9C824.929 55.1133 824.176 55.4867 823.696 56.02C823.229 56.54 822.996 57.26 822.996 58.18C822.996 59.1 823.229 59.8267 823.696 60.36C824.176 60.88 824.929 61.2533 825.956 61.48C826.996 61.6933 828.356 61.8 830.036 61.8C831.716 61.8 833.069 61.6933 834.096 61.48C835.123 61.2533 835.869 60.88 836.336 60.36C836.816 59.8267 837.056 59.1 837.056 58.18ZM842.523 67.76L842.783 65.9C842.957 65.9133 843.117 65.9267 843.263 65.94C843.423 65.9667 843.57 65.98 843.703 65.98C844.05 65.98 844.277 65.9333 844.383 65.84C844.503 65.76 844.563 65.5933 844.563 65.34V65H842.843V61H846.763V65.44C846.763 66.2133 846.53 66.82 846.063 67.26C845.597 67.7 844.863 67.92 843.863 67.92C843.397 67.92 842.95 67.8667 842.523 67.76ZM870.667 58.18C870.667 59.4067 870.44 60.4733 869.987 61.38C869.534 62.2733 868.847 63.0067 867.927 63.58C867.02 64.1533 865.867 64.58 864.467 64.86C863.08 65.14 861.454 65.28 859.587 65.28C857.707 65.28 856.067 65.14 854.667 64.86C853.28 64.58 852.127 64.1533 851.207 63.58C850.3 63.0067 849.62 62.2733 849.167 61.38C848.714 60.4733 848.487 59.4067 848.487 58.18C848.487 56.94 848.714 55.8733 849.167 54.98C849.62 54.0867 850.3 53.3533 851.207 52.78C852.127 52.2067 853.28 51.78 854.667 51.5C856.067 51.22 857.707 51.08 859.587 51.08C861.454 51.08 863.08 51.22 864.467 51.5C865.867 51.78 867.02 52.2067 867.927 52.78C868.847 53.3533 869.534 54.0867 869.987 54.98C870.44 55.8733 870.667 56.94 870.667 58.18ZM866.607 58.18C866.607 57.26 866.367 56.54 865.887 56.02C865.42 55.4867 864.674 55.1133 863.647 54.9C862.62 54.6733 861.267 54.56 859.587 54.56C857.907 54.56 856.547 54.6733 855.507 54.9C854.48 55.1133 853.727 55.4867 853.247 56.02C852.78 56.54 852.547 57.26 852.547 58.18C852.547 59.1 852.78 59.8267 853.247 60.36C853.727 60.88 854.48 61.2533 855.507 61.48C856.547 61.6933 857.907 61.8 859.587 61.8C861.267 61.8 862.62 61.6933 863.647 61.48C864.674 61.2533 865.42 60.88 865.887 60.36C866.367 59.8267 866.607 59.1 866.607 58.18ZM894.534 58.18C894.534 59.4067 894.307 60.4733 893.854 61.38C893.401 62.2733 892.714 63.0067 891.794 63.58C890.887 64.1533 889.734 64.58 888.334 64.86C886.947 65.14 885.321 65.28 883.454 65.28C881.574 65.28 879.934 65.14 878.534 64.86C877.147 64.58 875.994 64.1533 875.074 63.58C874.167 63.0067 873.487 62.2733 873.034 61.38C872.581 60.4733 872.354 59.4067 872.354 58.18C872.354 56.94 872.581 55.8733 873.034 54.98C873.487 54.0867 874.167 53.3533 875.074 52.78C875.994 52.2067 877.147 51.78 878.534 51.5C879.934 51.22 881.574 51.08 883.454 51.08C885.321 51.08 886.947 51.22 888.334 51.5C889.734 51.78 890.887 52.2067 891.794 52.78C892.714 53.3533 893.401 54.0867 893.854 54.98C894.307 55.8733 894.534 56.94 894.534 58.18ZM890.474 58.18C890.474 57.26 890.234 56.54 889.754 56.02C889.287 55.4867 888.541 55.1133 887.514 54.9C886.487 54.6733 885.134 54.56 883.454 54.56C881.774 54.56 880.414 54.6733 879.374 54.9C878.347 55.1133 877.594 55.4867 877.114 56.02C876.647 56.54 876.414 57.26 876.414 58.18C876.414 59.1 876.647 59.8267 877.114 60.36C877.594 60.88 878.347 61.2533 879.374 61.48C880.414 61.6933 881.774 61.8 883.454 61.8C885.134 61.8 886.487 61.6933 887.514 61.48C888.541 61.2533 889.287 60.88 889.754 60.36C890.234 59.8267 890.474 59.1 890.474 58.18ZM918.401 58.18C918.401 59.4067 918.175 60.4733 917.721 61.38C917.268 62.2733 916.581 63.0067 915.661 63.58C914.755 64.1533 913.601 64.58 912.201 64.86C910.815 65.14 909.188 65.28 907.321 65.28C905.441 65.28 903.801 65.14 902.401 64.86C901.015 64.58 899.861 64.1533 898.941 63.58C898.035 63.0067 897.355 62.2733 896.901 61.38C896.448 60.4733 896.221 59.4067 896.221 58.18C896.221 56.94 896.448 55.8733 896.901 54.98C897.355 54.0867 898.035 53.3533 898.941 52.78C899.861 52.2067 901.015 51.78 902.401 51.5C903.801 51.22 905.441 51.08 907.321 51.08C909.188 51.08 910.815 51.22 912.201 51.5C913.601 51.78 914.755 52.2067 915.661 52.78C916.581 53.3533 917.268 54.0867 917.721 54.98C918.175 55.8733 918.401 56.94 918.401 58.18ZM914.341 58.18C914.341 57.26 914.101 56.54 913.621 56.02C913.155 55.4867 912.408 55.1133 911.381 54.9C910.355 54.6733 909.001 54.56 907.321 54.56C905.641 54.56 904.281 54.6733 903.241 54.9C902.215 55.1133 901.461 55.4867 900.981 56.02C900.515 56.54 900.281 57.26 900.281 58.18C900.281 59.1 900.515 59.8267 900.981 60.36C901.461 60.88 902.215 61.2533 903.241 61.48C904.281 61.6933 905.641 61.8 907.321 61.8C909.001 61.8 910.355 61.6933 911.381 61.48C912.408 61.2533 913.155 60.88 913.621 60.36C914.101 59.8267 914.341 59.1 914.341 58.18Z" fill="white"/>
<defs>
<linearGradient id="paint0_linear_126_20469" x1="67.5981" y1="85.1568" x2="83.7106" y2="-12.4094" gradientUnits="userSpaceOnUse">
<stop stop-color="#014898"/>
<stop offset="1" stop-color="#00B1EF"/>
</linearGradient>
<linearGradient id="paint1_linear_126_20469" x1="303.598" y1="85.1568" x2="319.711" y2="-12.4094" gradientUnits="userSpaceOnUse">
<stop stop-color="#014898"/>
<stop offset="1" stop-color="#00B1EF"/>
</linearGradient>
<linearGradient id="paint2_linear_126_20469" x1="551.026" y1="85.1568" x2="564.898" y2="-13.1122" gradientUnits="userSpaceOnUse">
<stop stop-color="#014898"/>
<stop offset="1" stop-color="#00B1EF"/>
</linearGradient>
<linearGradient id="paint3_linear_126_20469" x1="810.598" y1="85.1568" x2="826.711" y2="-12.4094" gradientUnits="userSpaceOnUse">
<stop stop-color="#014898"/>
<stop offset="1" stop-color="#00B1EF"/>
</linearGradient>
</defs>
</svg>
